solid OpenSCAD_Model
  facet normal 0 -1 0
    outer loop
      vertex -0.925 2.425 0
      vertex 0.925 2.425 2
      vertex -0.925 2.425 2
    endloop
  endfacet
  facet normal 0 -1 -0
    outer loop
      vertex 0.925 2.425 2
      vertex -0.925 2.425 0
      vertex 0.925 2.425 0
    endloop
  endfacet
  facet normal 1 -0 0
    outer loop
      vertex -0.925 -2.425 2
      vertex -0.925 -0.925 0
      vertex -0.925 -0.925 2
    endloop
  endfacet
  facet normal 1 0 0
    outer loop
      vertex -0.925 -0.925 0
      vertex -0.925 -2.425 2
      vertex -0.925 -2.425 0
    endloop
  endfacet
  facet normal 1 -0 0
    outer loop
      vertex -0.925 0.925 2
      vertex -0.925 2.425 0
      vertex -0.925 2.425 2
    endloop
  endfacet
  facet normal 1 0 0
    outer loop
      vertex -0.925 2.425 0
      vertex -0.925 0.925 2
      vertex -0.925 0.925 0
    endloop
  endfacet
  facet normal 0 1 -0
    outer loop
      vertex 0.925 -2.425 0
      vertex -0.925 -2.425 2
      vertex 0.925 -2.425 2
    endloop
  endfacet
  facet normal 0 1 0
    outer loop
      vertex -0.925 -2.425 2
      vertex 0.925 -2.425 0
      vertex -0.925 -2.425 0
    endloop
  endfacet
  facet normal -1 0 0
    outer loop
      vertex 0.925 -2.425 0
      vertex 0.925 -0.925 2
      vertex 0.925 -0.925 0
    endloop
  endfacet
  facet normal -1 -0 0
    outer loop
      vertex 0.925 -0.925 2
      vertex 0.925 -2.425 0
      vertex 0.925 -2.425 2
    endloop
  endfacet
  facet normal -1 0 0
    outer loop
      vertex 0.925 0.925 0
      vertex 0.925 2.425 2
      vertex 0.925 2.425 0
    endloop
  endfacet
  facet normal -1 -0 0
    outer loop
      vertex 0.925 2.425 2
      vertex 0.925 0.925 0
      vertex 0.925 0.925 2
    endloop
  endfacet
  facet normal 1 -0 0
    outer loop
      vertex -2.425 -0.925 2
      vertex -2.425 0.925 0
      vertex -2.425 0.925 2
    endloop
  endfacet
  facet normal 1 0 0
    outer loop
      vertex -2.425 0.925 0
      vertex -2.425 -0.925 2
      vertex -2.425 -0.925 0
    endloop
  endfacet
  facet normal -1 0 0
    outer loop
      vertex 2.425 -0.925 0
      vertex 2.425 0.925 2
      vertex 2.425 0.925 0
    endloop
  endfacet
  facet normal -1 -0 0
    outer loop
      vertex 2.425 0.925 2
      vertex 2.425 -0.925 0
      vertex 2.425 -0.925 2
    endloop
  endfacet
  facet normal 0 1 -0
    outer loop
      vertex -0.925 -0.925 0
      vertex -2.425 -0.925 2
      vertex -0.925 -0.925 2
    endloop
  endfacet
  facet normal 0 1 0
    outer loop
      vertex -2.425 -0.925 2
      vertex -0.925 -0.925 0
      vertex -2.425 -0.925 0
    endloop
  endfacet
  facet normal 0 1 -0
    outer loop
      vertex 2.425 -0.925 0
      vertex 0.925 -0.925 2
      vertex 2.425 -0.925 2
    endloop
  endfacet
  facet normal 0 1 0
    outer loop
      vertex 0.925 -0.925 2
      vertex 2.425 -0.925 0
      vertex 0.925 -0.925 0
    endloop
  endfacet
  facet normal 0 -1 0
    outer loop
      vertex -2.425 0.925 0
      vertex -0.925 0.925 2
      vertex -2.425 0.925 2
    endloop
  endfacet
  facet normal 0 -1 -0
    outer loop
      vertex -0.925 0.925 2
      vertex -2.425 0.925 0
      vertex -0.925 0.925 0
    endloop
  endfacet
  facet normal 0 -1 0
    outer loop
      vertex 0.925 0.925 0
      vertex 2.425 0.925 2
      vertex 0.925 0.925 2
    endloop
  endfacet
  facet normal 0 -1 -0
    outer loop
      vertex 2.425 0.925 2
      vertex 0.925 0.925 0
      vertex 2.425 0.925 0
    endloop
  endfacet
  facet normal 0 1 -0
    outer loop
      vertex 15.925 2.425 -20
      vertex 14.075 2.425 20
      vertex 15.925 2.425 20
    endloop
  endfacet
  facet normal 0 1 0
    outer loop
      vertex 14.075 2.425 20
      vertex 15.925 2.425 -20
      vertex 14.075 2.425 -20
    endloop
  endfacet
  facet normal -0 0 1
    outer loop
      vertex 12.575 0.925 20
      vertex 14.075 -0.925 20
      vertex 14.075 0.925 20
    endloop
  endfacet
  facet normal 0 0 1
    outer loop
      vertex 14.075 -0.925 20
      vertex 12.575 0.925 20
      vertex 12.575 -0.925 20
    endloop
  endfacet
  facet normal 0 0 1
    outer loop
      vertex 14.075 0.925 20
      vertex 15.925 0.925 20
      vertex 15.925 2.425 20
    endloop
  endfacet
  facet normal 0 0 1
    outer loop
      vertex 15.925 0.925 20
      vertex 14.075 0.925 20
      vertex 15.925 -0.925 20
    endloop
  endfacet
  facet normal 0 0 1
    outer loop
      vertex 14.075 0.925 20
      vertex 15.925 2.425 20
      vertex 14.075 2.425 20
    endloop
  endfacet
  facet normal 0 0 1
    outer loop
      vertex 14.075 -0.925 20
      vertex 15.925 -0.925 20
      vertex 14.075 0.925 20
    endloop
  endfacet
  facet normal 0 0 1
    outer loop
      vertex 15.925 -0.925 20
      vertex 14.075 -0.925 20
      vertex 15.925 -2.425 20
    endloop
  endfacet
  facet normal 0 0 1
    outer loop
      vertex 15.925 -2.425 20
      vertex 14.075 -0.925 20
      vertex 14.075 -2.425 20
    endloop
  endfacet
  facet normal -0 0 1
    outer loop
      vertex 15.925 0.925 20
      vertex 17.425 -0.925 20
      vertex 17.425 0.925 20
    endloop
  endfacet
  facet normal 0 0 1
    outer loop
      vertex 17.425 -0.925 20
      vertex 15.925 0.925 20
      vertex 15.925 -0.925 20
    endloop
  endfacet
  facet normal -1 0 0
    outer loop
      vertex 14.075 0.925 -20
      vertex 14.075 2.425 20
      vertex 14.075 2.425 -20
    endloop
  endfacet
  facet normal -1 -0 0
    outer loop
      vertex 14.075 2.425 20
      vertex 14.075 0.925 -20
      vertex 14.075 0.925 20
    endloop
  endfacet
  facet normal -1 0 0
    outer loop
      vertex 14.075 -2.425 -20
      vertex 14.075 -0.925 20
      vertex 14.075 -0.925 -20
    endloop
  endfacet
  facet normal -1 -0 0
    outer loop
      vertex 14.075 -0.925 20
      vertex 14.075 -2.425 -20
      vertex 14.075 -2.425 20
    endloop
  endfacet
  facet normal 0 -1 0
    outer loop
      vertex 14.075 -2.425 -20
      vertex 15.925 -2.425 20
      vertex 14.075 -2.425 20
    endloop
  endfacet
  facet normal 0 -1 -0
    outer loop
      vertex 15.925 -2.425 20
      vertex 14.075 -2.425 -20
      vertex 15.925 -2.425 -20
    endloop
  endfacet
  facet normal 0 0 -1
    outer loop
      vertex 12.575 -0.925 -20
      vertex 14.075 0.925 -20
      vertex 14.075 -0.925 -20
    endloop
  endfacet
  facet normal -0 0 -1
    outer loop
      vertex 14.075 0.925 -20
      vertex 12.575 -0.925 -20
      vertex 12.575 0.925 -20
    endloop
  endfacet
  facet normal 0 0 -1
    outer loop
      vertex 14.075 -0.925 -20
      vertex 15.925 -0.925 -20
      vertex 15.925 -2.425 -20
    endloop
  endfacet
  facet normal 0 0 -1
    outer loop
      vertex 15.925 -0.925 -20
      vertex 14.075 -0.925 -20
      vertex 15.925 0.925 -20
    endloop
  endfacet
  facet normal 0 0 -1
    outer loop
      vertex 14.075 -0.925 -20
      vertex 15.925 -2.425 -20
      vertex 14.075 -2.425 -20
    endloop
  endfacet
  facet normal 0 0 -1
    outer loop
      vertex 14.075 0.925 -20
      vertex 15.925 0.925 -20
      vertex 14.075 -0.925 -20
    endloop
  endfacet
  facet normal 0 0 -1
    outer loop
      vertex 15.925 0.925 -20
      vertex 14.075 0.925 -20
      vertex 15.925 2.425 -20
    endloop
  endfacet
  facet normal -0 0 -1
    outer loop
      vertex 15.925 2.425 -20
      vertex 14.075 0.925 -20
      vertex 14.075 2.425 -20
    endloop
  endfacet
  facet normal 0 0 -1
    outer loop
      vertex 15.925 -0.925 -20
      vertex 17.425 0.925 -20
      vertex 17.425 -0.925 -20
    endloop
  endfacet
  facet normal -0 0 -1
    outer loop
      vertex 17.425 0.925 -20
      vertex 15.925 -0.925 -20
      vertex 15.925 0.925 -20
    endloop
  endfacet
  facet normal 1 -0 0
    outer loop
      vertex 15.925 -2.425 20
      vertex 15.925 -0.925 -20
      vertex 15.925 -0.925 20
    endloop
  endfacet
  facet normal 1 0 0
    outer loop
      vertex 15.925 -0.925 -20
      vertex 15.925 -2.425 20
      vertex 15.925 -2.425 -20
    endloop
  endfacet
  facet normal 1 -0 0
    outer loop
      vertex 15.925 0.925 20
      vertex 15.925 2.425 -20
      vertex 15.925 2.425 20
    endloop
  endfacet
  facet normal 1 0 0
    outer loop
      vertex 15.925 2.425 -20
      vertex 15.925 0.925 20
      vertex 15.925 0.925 -20
    endloop
  endfacet
  facet normal -1 0 0
    outer loop
      vertex 12.575 -0.925 -20
      vertex 12.575 0.925 20
      vertex 12.575 0.925 -20
    endloop
  endfacet
  facet normal -1 -0 0
    outer loop
      vertex 12.575 0.925 20
      vertex 12.575 -0.925 -20
      vertex 12.575 -0.925 20
    endloop
  endfacet
  facet normal 1 -0 0
    outer loop
      vertex 17.425 -0.925 20
      vertex 17.425 0.925 -20
      vertex 17.425 0.925 20
    endloop
  endfacet
  facet normal 1 0 0
    outer loop
      vertex 17.425 0.925 -20
      vertex 17.425 -0.925 20
      vertex 17.425 -0.925 -20
    endloop
  endfacet
  facet normal 0 -1 0
    outer loop
      vertex 12.575 -0.925 -20
      vertex 14.075 -0.925 20
      vertex 12.575 -0.925 20
    endloop
  endfacet
  facet normal 0 -1 -0
    outer loop
      vertex 14.075 -0.925 20
      vertex 12.575 -0.925 -20
      vertex 14.075 -0.925 -20
    endloop
  endfacet
  facet normal 0 -1 0
    outer loop
      vertex 15.925 -0.925 -20
      vertex 17.425 -0.925 20
      vertex 15.925 -0.925 20
    endloop
  endfacet
  facet normal 0 -1 -0
    outer loop
      vertex 17.425 -0.925 20
      vertex 15.925 -0.925 -20
      vertex 17.425 -0.925 -20
    endloop
  endfacet
  facet normal 0 1 -0
    outer loop
      vertex 17.425 0.925 -20
      vertex 15.925 0.925 20
      vertex 17.425 0.925 20
    endloop
  endfacet
  facet normal 0 1 0
    outer loop
      vertex 15.925 0.925 20
      vertex 17.425 0.925 -20
      vertex 15.925 0.925 -20
    endloop
  endfacet
  facet normal 0 1 -0
    outer loop
      vertex 14.075 0.925 -20
      vertex 12.575 0.925 20
      vertex 14.075 0.925 20
    endloop
  endfacet
  facet normal 0 1 0
    outer loop
      vertex 12.575 0.925 20
      vertex 14.075 0.925 -20
      vertex 12.575 0.925 -20
    endloop
  endfacet
  facet normal 0.994522 0.104528 0
    outer loop
      vertex 10 0 2
      vertex 9.78148 2.07912 0
      vertex 9.78148 2.07912 2
    endloop
  endfacet
  facet normal 0.994522 0.104528 0
    outer loop
      vertex 9.78148 2.07912 0
      vertex 10 0 2
      vertex 10 0 0
    endloop
  endfacet
  facet normal -0.207912 0.978148 0
    outer loop
      vertex -1.04528 9.94522 0
      vertex -3.09017 9.51056 2
      vertex -1.04528 9.94522 2
    endloop
  endfacet
  facet normal -0.207912 0.978148 0
    outer loop
      vertex -3.09017 9.51056 2
      vertex -1.04528 9.94522 0
      vertex -3.09017 9.51056 0
    endloop
  endfacet
  facet normal 0.207912 -0.978148 0
    outer loop
      vertex 1.04528 -9.94522 0
      vertex 3.09017 -9.51056 2
      vertex 1.04528 -9.94522 2
    endloop
  endfacet
  facet normal 0.207912 -0.978148 0
    outer loop
      vertex 3.09017 -9.51056 2
      vertex 1.04528 -9.94522 0
      vertex 3.09017 -9.51056 0
    endloop
  endfacet
  facet normal 0.587785 0.809017 -0
    outer loop
      vertex 6.69131 7.43145 0
      vertex 5 8.66025 2
      vertex 6.69131 7.43145 2
    endloop
  endfacet
  facet normal 0.587785 0.809017 0
    outer loop
      vertex 5 8.66025 2
      vertex 6.69131 7.43145 0
      vertex 5 8.66025 0
    endloop
  endfacet
  facet normal -0.866025 0.5 0
    outer loop
      vertex -9.13545 4.06737 0
      vertex -8.09017 5.87785 2
      vertex -8.09017 5.87785 0
    endloop
  endfacet
  facet normal -0.866025 0.5 0
    outer loop
      vertex -8.09017 5.87785 2
      vertex -9.13545 4.06737 0
      vertex -9.13545 4.06737 2
    endloop
  endfacet
  facet normal 0 0 -1
    outer loop
      vertex -2.425 0.925 0
      vertex -0.925 2.425 0
      vertex -0.925 0.925 0
    endloop
  endfacet
  facet normal 0 0 -1
    outer loop
      vertex -6.69131 7.43145 0
      vertex -0.925 2.425 0
      vertex -2.425 0.925 0
    endloop
  endfacet
  facet normal 0 0 -1
    outer loop
      vertex -0.925 2.425 0
      vertex -3.09017 9.51056 0
      vertex -1.04528 9.94522 0
    endloop
  endfacet
  facet normal -0 0 -1
    outer loop
      vertex -0.925 -2.425 0
      vertex -6.69131 -7.43145 0
      vertex -2.425 -0.925 0
    endloop
  endfacet
  facet normal 0 0 -1
    outer loop
      vertex -8.09017 -5.87785 0
      vertex -2.425 -0.925 0
      vertex -6.69131 -7.43145 0
    endloop
  endfacet
  facet normal 0 0 -1
    outer loop
      vertex -0.925 2.425 0
      vertex -5 8.66025 0
      vertex -3.09017 9.51056 0
    endloop
  endfacet
  facet normal 0 0 -1
    outer loop
      vertex -9.13545 -4.06737 0
      vertex -2.425 -0.925 0
      vertex -8.09017 -5.87785 0
    endloop
  endfacet
  facet normal 0 0 -1
    outer loop
      vertex -0.925 2.425 0
      vertex -6.69131 7.43145 0
      vertex -5 8.66025 0
    endloop
  endfacet
  facet normal 0 0 -1
    outer loop
      vertex -9.78148 -2.07912 0
      vertex -2.425 -0.925 0
      vertex -9.13545 -4.06737 0
    endloop
  endfacet
  facet normal 0 0 -1
    outer loop
      vertex -2.425 0.925 0
      vertex -8.09017 5.87785 0
      vertex -6.69131 7.43145 0
    endloop
  endfacet
  facet normal 0 0 -1
    outer loop
      vertex -10 5.66554e-15 0
      vertex -2.425 -0.925 0
      vertex -9.78148 -2.07912 0
    endloop
  endfacet
  facet normal 0 0 -1
    outer loop
      vertex -2.425 0.925 0
      vertex -9.13545 4.06737 0
      vertex -8.09017 5.87785 0
    endloop
  endfacet
  facet normal 0 0 -1
    outer loop
      vertex -2.425 -0.925 0
      vertex -10 5.66554e-15 0
      vertex -2.425 0.925 0
    endloop
  endfacet
  facet normal 0 0 -1
    outer loop
      vertex -2.425 0.925 0
      vertex -9.78148 2.07912 0
      vertex -9.13545 4.06737 0
    endloop
  endfacet
  facet normal -0 0 -1
    outer loop
      vertex -2.425 0.925 0
      vertex -10 5.66554e-15 0
      vertex -9.78148 2.07912 0
    endloop
  endfacet
  facet normal 0 0 -1
    outer loop
      vertex 1.04528 -9.94522 0
      vertex -0.925 -2.425 0
      vertex 0.925 -2.425 0
    endloop
  endfacet
  facet normal 0 0 -1
    outer loop
      vertex -1.04528 -9.94522 0
      vertex -0.925 -2.425 0
      vertex 1.04528 -9.94522 0
    endloop
  endfacet
  facet normal 0 0 -1
    outer loop
      vertex -3.09017 -9.51056 0
      vertex -0.925 -2.425 0
      vertex -1.04528 -9.94522 0
    endloop
  endfacet
  facet normal 0 0 -1
    outer loop
      vertex -5 -8.66025 0
      vertex -0.925 -2.425 0
      vertex -3.09017 -9.51056 0
    endloop
  endfacet
  facet normal 0 0 -1
    outer loop
      vertex -6.69131 -7.43145 0
      vertex -0.925 -2.425 0
      vertex -5 -8.66025 0
    endloop
  endfacet
  facet normal 0 0 -1
    outer loop
      vertex -0.925 -2.425 0
      vertex -2.425 -0.925 0
      vertex -0.925 -0.925 0
    endloop
  endfacet
  facet normal 0 0 -1
    outer loop
      vertex 2.425 -0.925 0
      vertex 10 0 0
      vertex 9.78148 -2.07912 0
    endloop
  endfacet
  facet normal 0 0 -1
    outer loop
      vertex 2.425 -0.925 0
      vertex 9.78148 -2.07912 0
      vertex 9.13545 -4.06737 0
    endloop
  endfacet
  facet normal 0 0 -1
    outer loop
      vertex 2.425 0.925 0
      vertex 10 0 0
      vertex 2.425 -0.925 0
    endloop
  endfacet
  facet normal 0 0 -1
    outer loop
      vertex 2.425 -0.925 0
      vertex 9.13545 -4.06737 0
      vertex 8.09017 -5.87785 0
    endloop
  endfacet
  facet normal 0 0 -1
    outer loop
      vertex 10 0 0
      vertex 2.425 0.925 0
      vertex 9.78148 2.07912 0
    endloop
  endfacet
  facet normal 0 0 -1
    outer loop
      vertex 2.425 -0.925 0
      vertex 8.09017 -5.87785 0
      vertex 6.69131 -7.43145 0
    endloop
  endfacet
  facet normal -0 0 -1
    outer loop
      vertex 9.78148 2.07912 0
      vertex 2.425 0.925 0
      vertex 9.13545 4.06737 0
    endloop
  endfacet
  facet normal 0 0 -1
    outer loop
      vertex 0.925 -2.425 0
      vertex 6.69131 -7.43145 0
      vertex 5 -8.66025 0
    endloop
  endfacet
  facet normal -0 0 -1
    outer loop
      vertex 9.13545 4.06737 0
      vertex 2.425 0.925 0
      vertex 8.09017 5.87785 0
    endloop
  endfacet
  facet normal 0 0 -1
    outer loop
      vertex 0.925 -2.425 0
      vertex 5 -8.66025 0
      vertex 3.09017 -9.51056 0
    endloop
  endfacet
  facet normal -0 0 -1
    outer loop
      vertex 8.09017 5.87785 0
      vertex 2.425 0.925 0
      vertex 6.69131 7.43145 0
    endloop
  endfacet
  facet normal 0 0 -1
    outer loop
      vertex 0.925 2.425 0
      vertex 6.69131 7.43145 0
      vertex 2.425 0.925 0
    endloop
  endfacet
  facet normal 0 0 -1
    outer loop
      vertex 0.925 -2.425 0
      vertex 3.09017 -9.51056 0
      vertex 1.04528 -9.94522 0
    endloop
  endfacet
  facet normal 0 0 -1
    outer loop
      vertex 6.69131 -7.43145 0
      vertex 0.925 -2.425 0
      vertex 2.425 -0.925 0
    endloop
  endfacet
  facet normal -0 0 -1
    outer loop
      vertex 2.425 -0.925 0
      vertex 0.925 -2.425 0
      vertex 0.925 -0.925 0
    endloop
  endfacet
  facet normal -0 0 -1
    outer loop
      vertex 6.69131 7.43145 0
      vertex 0.925 2.425 0
      vertex 5 8.66025 0
    endloop
  endfacet
  facet normal -0 0 -1
    outer loop
      vertex 5 8.66025 0
      vertex 0.925 2.425 0
      vertex 3.09017 9.51056 0
    endloop
  endfacet
  facet normal 0 0 -1
    outer loop
      vertex 0.925 2.425 0
      vertex 2.425 0.925 0
      vertex 0.925 0.925 0
    endloop
  endfacet
  facet normal -0 0 -1
    outer loop
      vertex 3.09017 9.51056 0
      vertex 0.925 2.425 0
      vertex 1.04528 9.94522 0
    endloop
  endfacet
  facet normal 0 0 -1
    outer loop
      vertex -0.925 2.425 0
      vertex 1.04528 9.94522 0
      vertex 0.925 2.425 0
    endloop
  endfacet
  facet normal -0 0 -1
    outer loop
      vertex 1.04528 9.94522 0
      vertex -0.925 2.425 0
      vertex -1.04528 9.94522 0
    endloop
  endfacet
  facet normal -0.587785 0.809017 0
    outer loop
      vertex -5 8.66025 0
      vertex -6.69131 7.43145 2
      vertex -5 8.66025 2
    endloop
  endfacet
  facet normal -0.587785 0.809017 0
    outer loop
      vertex -6.69131 7.43145 2
      vertex -5 8.66025 0
      vertex -6.69131 7.43145 0
    endloop
  endfacet
  facet normal 0.866025 0.5 0
    outer loop
      vertex 9.13545 4.06737 2
      vertex 8.09017 5.87785 0
      vertex 8.09017 5.87785 2
    endloop
  endfacet
  facet normal 0.866025 0.5 0
    outer loop
      vertex 8.09017 5.87785 0
      vertex 9.13545 4.06737 2
      vertex 9.13545 4.06737 0
    endloop
  endfacet
  facet normal 0.951056 0.309017 0
    outer loop
      vertex 9.78148 2.07912 2
      vertex 9.13545 4.06737 0
      vertex 9.13545 4.06737 2
    endloop
  endfacet
  facet normal 0.951056 0.309017 0
    outer loop
      vertex 9.13545 4.06737 0
      vertex 9.78148 2.07912 2
      vertex 9.78148 2.07912 0
    endloop
  endfacet
  facet normal 0.743145 0.669131 0
    outer loop
      vertex 8.09017 5.87785 2
      vertex 6.69131 7.43145 0
      vertex 6.69131 7.43145 2
    endloop
  endfacet
  facet normal 0.743145 0.669131 0
    outer loop
      vertex 6.69131 7.43145 0
      vertex 8.09017 5.87785 2
      vertex 8.09017 5.87785 0
    endloop
  endfacet
  facet normal 0.207912 0.978148 -0
    outer loop
      vertex 3.09017 9.51056 0
      vertex 1.04528 9.94522 2
      vertex 3.09017 9.51056 2
    endloop
  endfacet
  facet normal 0.207912 0.978148 0
    outer loop
      vertex 1.04528 9.94522 2
      vertex 3.09017 9.51056 0
      vertex 1.04528 9.94522 0
    endloop
  endfacet
  facet normal 0 1 -0
    outer loop
      vertex 1.04528 9.94522 0
      vertex -1.04528 9.94522 2
      vertex 1.04528 9.94522 2
    endloop
  endfacet
  facet normal 0 1 0
    outer loop
      vertex -1.04528 9.94522 2
      vertex 1.04528 9.94522 0
      vertex -1.04528 9.94522 0
    endloop
  endfacet
  facet normal 0.406736 0.913546 -0
    outer loop
      vertex 5 8.66025 0
      vertex 3.09017 9.51056 2
      vertex 5 8.66025 2
    endloop
  endfacet
  facet normal 0.406736 0.913546 0
    outer loop
      vertex 3.09017 9.51056 2
      vertex 5 8.66025 0
      vertex 3.09017 9.51056 0
    endloop
  endfacet
  facet normal -0.951056 0.309017 0
    outer loop
      vertex -9.78148 2.07912 0
      vertex -9.13545 4.06737 2
      vertex -9.13545 4.06737 0
    endloop
  endfacet
  facet normal -0.951056 0.309017 0
    outer loop
      vertex -9.13545 4.06737 2
      vertex -9.78148 2.07912 0
      vertex -9.78148 2.07912 2
    endloop
  endfacet
  facet normal -0.994522 0.104528 0
    outer loop
      vertex -10 5.66554e-15 0
      vertex -9.78148 2.07912 2
      vertex -9.78148 2.07912 0
    endloop
  endfacet
  facet normal -0.994522 0.104528 0
    outer loop
      vertex -9.78148 2.07912 2
      vertex -10 5.66554e-15 0
      vertex -10 5.66554e-15 2
    endloop
  endfacet
  facet normal -0.994522 -0.104528 0
    outer loop
      vertex -9.78148 -2.07912 0
      vertex -10 5.66554e-15 2
      vertex -10 5.66554e-15 0
    endloop
  endfacet
  facet normal -0.994522 -0.104528 0
    outer loop
      vertex -10 5.66554e-15 2
      vertex -9.78148 -2.07912 0
      vertex -9.78148 -2.07912 2
    endloop
  endfacet
  facet normal -0.743145 0.669131 0
    outer loop
      vertex -8.09017 5.87785 0
      vertex -6.69131 7.43145 2
      vertex -6.69131 7.43145 0
    endloop
  endfacet
  facet normal -0.743145 0.669131 0
    outer loop
      vertex -6.69131 7.43145 2
      vertex -8.09017 5.87785 0
      vertex -8.09017 5.87785 2
    endloop
  endfacet
  facet normal -0.406736 0.913546 0
    outer loop
      vertex -3.09017 9.51056 0
      vertex -5 8.66025 2
      vertex -3.09017 9.51056 2
    endloop
  endfacet
  facet normal -0.406736 0.913546 0
    outer loop
      vertex -5 8.66025 2
      vertex -3.09017 9.51056 0
      vertex -5 8.66025 0
    endloop
  endfacet
  facet normal 0.994522 -0.104528 0
    outer loop
      vertex 9.78148 -2.07912 2
      vertex 10 0 0
      vertex 10 0 2
    endloop
  endfacet
  facet normal 0.994522 -0.104528 0
    outer loop
      vertex 10 0 0
      vertex 9.78148 -2.07912 2
      vertex 9.78148 -2.07912 0
    endloop
  endfacet
  facet normal 0.951056 -0.309017 0
    outer loop
      vertex 9.13545 -4.06737 2
      vertex 9.78148 -2.07912 0
      vertex 9.78148 -2.07912 2
    endloop
  endfacet
  facet normal 0.951056 -0.309017 0
    outer loop
      vertex 9.78148 -2.07912 0
      vertex 9.13545 -4.06737 2
      vertex 9.13545 -4.06737 0
    endloop
  endfacet
  facet normal -0 0 1
    outer loop
      vertex -2.425 -0.925 2
      vertex -0.925 -2.425 2
      vertex -0.925 -0.925 2
    endloop
  endfacet
  facet normal 0 0 1
    outer loop
      vertex -6.69131 -7.43145 2
      vertex -0.925 -2.425 2
      vertex -2.425 -0.925 2
    endloop
  endfacet
  facet normal 0 0 1
    outer loop
      vertex -0.925 -2.425 2
      vertex -3.09017 -9.51056 2
      vertex -1.04528 -9.94522 2
    endloop
  endfacet
  facet normal 0 0 1
    outer loop
      vertex -0.925 2.425 2
      vertex -6.69131 7.43145 2
      vertex -2.425 0.925 2
    endloop
  endfacet
  facet normal -0 0 1
    outer loop
      vertex -8.09017 5.87785 2
      vertex -2.425 0.925 2
      vertex -6.69131 7.43145 2
    endloop
  endfacet
  facet normal 0 0 1
    outer loop
      vertex -0.925 -2.425 2
      vertex -5 -8.66025 2
      vertex -3.09017 -9.51056 2
    endloop
  endfacet
  facet normal -0 0 1
    outer loop
      vertex -9.13545 4.06737 2
      vertex -2.425 0.925 2
      vertex -8.09017 5.87785 2
    endloop
  endfacet
  facet normal 0 0 1
    outer loop
      vertex -0.925 -2.425 2
      vertex -6.69131 -7.43145 2
      vertex -5 -8.66025 2
    endloop
  endfacet
  facet normal -0 0 1
    outer loop
      vertex -9.78148 2.07912 2
      vertex -2.425 0.925 2
      vertex -9.13545 4.06737 2
    endloop
  endfacet
  facet normal 0 0 1
    outer loop
      vertex -2.425 -0.925 2
      vertex -8.09017 -5.87785 2
      vertex -6.69131 -7.43145 2
    endloop
  endfacet
  facet normal 0 0 1
    outer loop
      vertex -10 5.66554e-15 2
      vertex -2.425 0.925 2
      vertex -9.78148 2.07912 2
    endloop
  endfacet
  facet normal 0 0 1
    outer loop
      vertex -2.425 -0.925 2
      vertex -9.13545 -4.06737 2
      vertex -8.09017 -5.87785 2
    endloop
  endfacet
  facet normal 0 0 1
    outer loop
      vertex -2.425 0.925 2
      vertex -10 5.66554e-15 2
      vertex -2.425 -0.925 2
    endloop
  endfacet
  facet normal 0 0 1
    outer loop
      vertex -2.425 -0.925 2
      vertex -9.78148 -2.07912 2
      vertex -9.13545 -4.06737 2
    endloop
  endfacet
  facet normal 0 0 1
    outer loop
      vertex -2.425 -0.925 2
      vertex -10 5.66554e-15 2
      vertex -9.78148 -2.07912 2
    endloop
  endfacet
  facet normal 0 0 1
    outer loop
      vertex 1.04528 9.94522 2
      vertex -0.925 2.425 2
      vertex 0.925 2.425 2
    endloop
  endfacet
  facet normal -0 0 1
    outer loop
      vertex -1.04528 9.94522 2
      vertex -0.925 2.425 2
      vertex 1.04528 9.94522 2
    endloop
  endfacet
  facet normal -0 0 1
    outer loop
      vertex -3.09017 9.51056 2
      vertex -0.925 2.425 2
      vertex -1.04528 9.94522 2
    endloop
  endfacet
  facet normal -0 0 1
    outer loop
      vertex -5 8.66025 2
      vertex -0.925 2.425 2
      vertex -3.09017 9.51056 2
    endloop
  endfacet
  facet normal -0 0 1
    outer loop
      vertex -6.69131 7.43145 2
      vertex -0.925 2.425 2
      vertex -5 8.66025 2
    endloop
  endfacet
  facet normal 0 0 1
    outer loop
      vertex -0.925 2.425 2
      vertex -2.425 0.925 2
      vertex -0.925 0.925 2
    endloop
  endfacet
  facet normal -0 0 1
    outer loop
      vertex 2.425 0.925 2
      vertex 10 0 2
      vertex 9.78148 2.07912 2
    endloop
  endfacet
  facet normal 0 0 1
    outer loop
      vertex 2.425 0.925 2
      vertex 9.78148 2.07912 2
      vertex 9.13545 4.06737 2
    endloop
  endfacet
  facet normal 0 0 1
    outer loop
      vertex 2.425 -0.925 2
      vertex 10 0 2
      vertex 2.425 0.925 2
    endloop
  endfacet
  facet normal 0 0 1
    outer loop
      vertex 2.425 0.925 2
      vertex 9.13545 4.06737 2
      vertex 8.09017 5.87785 2
    endloop
  endfacet
  facet normal 0 0 1
    outer loop
      vertex 10 0 2
      vertex 2.425 -0.925 2
      vertex 9.78148 -2.07912 2
    endloop
  endfacet
  facet normal 0 0 1
    outer loop
      vertex 2.425 0.925 2
      vertex 8.09017 5.87785 2
      vertex 6.69131 7.43145 2
    endloop
  endfacet
  facet normal 0 0 1
    outer loop
      vertex 9.78148 -2.07912 2
      vertex 2.425 -0.925 2
      vertex 9.13545 -4.06737 2
    endloop
  endfacet
  facet normal 0 0 1
    outer loop
      vertex 0.925 2.425 2
      vertex 6.69131 7.43145 2
      vertex 5 8.66025 2
    endloop
  endfacet
  facet normal 0 0 1
    outer loop
      vertex 9.13545 -4.06737 2
      vertex 2.425 -0.925 2
      vertex 8.09017 -5.87785 2
    endloop
  endfacet
  facet normal 0 0 1
    outer loop
      vertex 0.925 2.425 2
      vertex 5 8.66025 2
      vertex 3.09017 9.51056 2
    endloop
  endfacet
  facet normal 0 0 1
    outer loop
      vertex 8.09017 -5.87785 2
      vertex 2.425 -0.925 2
      vertex 6.69131 -7.43145 2
    endloop
  endfacet
  facet normal -0 0 1
    outer loop
      vertex 0.925 -2.425 2
      vertex 6.69131 -7.43145 2
      vertex 2.425 -0.925 2
    endloop
  endfacet
  facet normal 0 0 1
    outer loop
      vertex 0.925 2.425 2
      vertex 3.09017 9.51056 2
      vertex 1.04528 9.94522 2
    endloop
  endfacet
  facet normal 0 0 1
    outer loop
      vertex 6.69131 7.43145 2
      vertex 0.925 2.425 2
      vertex 2.425 0.925 2
    endloop
  endfacet
  facet normal 0 0 1
    outer loop
      vertex 2.425 0.925 2
      vertex 0.925 2.425 2
      vertex 0.925 0.925 2
    endloop
  endfacet
  facet normal 0 0 1
    outer loop
      vertex 6.69131 -7.43145 2
      vertex 0.925 -2.425 2
      vertex 5 -8.66025 2
    endloop
  endfacet
  facet normal 0 0 1
    outer loop
      vertex 5 -8.66025 2
      vertex 0.925 -2.425 2
      vertex 3.09017 -9.51056 2
    endloop
  endfacet
  facet normal 0 0 1
    outer loop
      vertex 0.925 -2.425 2
      vertex 2.425 -0.925 2
      vertex 0.925 -0.925 2
    endloop
  endfacet
  facet normal 0 0 1
    outer loop
      vertex 3.09017 -9.51056 2
      vertex 0.925 -2.425 2
      vertex 1.04528 -9.94522 2
    endloop
  endfacet
  facet normal -0 0 1
    outer loop
      vertex -0.925 -2.425 2
      vertex 1.04528 -9.94522 2
      vertex 0.925 -2.425 2
    endloop
  endfacet
  facet normal 0 0 1
    outer loop
      vertex 1.04528 -9.94522 2
      vertex -0.925 -2.425 2
      vertex -1.04528 -9.94522 2
    endloop
  endfacet
  facet normal -0.406736 -0.913546 0
    outer loop
      vertex -5 -8.66025 0
      vertex -3.09017 -9.51056 2
      vertex -5 -8.66025 2
    endloop
  endfacet
  facet normal -0.406736 -0.913546 -0
    outer loop
      vertex -3.09017 -9.51056 2
      vertex -5 -8.66025 0
      vertex -3.09017 -9.51056 0
    endloop
  endfacet
  facet normal -0.743145 -0.669131 0
    outer loop
      vertex -6.69131 -7.43145 0
      vertex -8.09017 -5.87785 2
      vertex -8.09017 -5.87785 0
    endloop
  endfacet
  facet normal -0.743145 -0.669131 0
    outer loop
      vertex -8.09017 -5.87785 2
      vertex -6.69131 -7.43145 0
      vertex -6.69131 -7.43145 2
    endloop
  endfacet
  facet normal -0.587785 -0.809017 0
    outer loop
      vertex -6.69131 -7.43145 0
      vertex -5 -8.66025 2
      vertex -6.69131 -7.43145 2
    endloop
  endfacet
  facet normal -0.587785 -0.809017 -0
    outer loop
      vertex -5 -8.66025 2
      vertex -6.69131 -7.43145 0
      vertex -5 -8.66025 0
    endloop
  endfacet
  facet normal 0.743145 -0.669131 0
    outer loop
      vertex 6.69131 -7.43145 2
      vertex 8.09017 -5.87785 0
      vertex 8.09017 -5.87785 2
    endloop
  endfacet
  facet normal 0.743145 -0.669131 0
    outer loop
      vertex 8.09017 -5.87785 0
      vertex 6.69131 -7.43145 2
      vertex 6.69131 -7.43145 0
    endloop
  endfacet
  facet normal 0 -1 0
    outer loop
      vertex -1.04528 -9.94522 0
      vertex 1.04528 -9.94522 2
      vertex -1.04528 -9.94522 2
    endloop
  endfacet
  facet normal 0 -1 -0
    outer loop
      vertex 1.04528 -9.94522 2
      vertex -1.04528 -9.94522 0
      vertex 1.04528 -9.94522 0
    endloop
  endfacet
  facet normal -0.866025 -0.5 0
    outer loop
      vertex -8.09017 -5.87785 0
      vertex -9.13545 -4.06737 2
      vertex -9.13545 -4.06737 0
    endloop
  endfacet
  facet normal -0.866025 -0.5 0
    outer loop
      vertex -9.13545 -4.06737 2
      vertex -8.09017 -5.87785 0
      vertex -8.09017 -5.87785 2
    endloop
  endfacet
  facet normal -0.951056 -0.309017 0
    outer loop
      vertex -9.13545 -4.06737 0
      vertex -9.78148 -2.07912 2
      vertex -9.78148 -2.07912 0
    endloop
  endfacet
  facet normal -0.951056 -0.309017 0
    outer loop
      vertex -9.78148 -2.07912 2
      vertex -9.13545 -4.06737 0
      vertex -9.13545 -4.06737 2
    endloop
  endfacet
  facet normal 0.587785 -0.809017 0
    outer loop
      vertex 5 -8.66025 0
      vertex 6.69131 -7.43145 2
      vertex 5 -8.66025 2
    endloop
  endfacet
  facet normal 0.587785 -0.809017 0
    outer loop
      vertex 6.69131 -7.43145 2
      vertex 5 -8.66025 0
      vertex 6.69131 -7.43145 0
    endloop
  endfacet
  facet normal 0.406736 -0.913546 0
    outer loop
      vertex 3.09017 -9.51056 0
      vertex 5 -8.66025 2
      vertex 3.09017 -9.51056 2
    endloop
  endfacet
  facet normal 0.406736 -0.913546 0
    outer loop
      vertex 5 -8.66025 2
      vertex 3.09017 -9.51056 0
      vertex 5 -8.66025 0
    endloop
  endfacet
  facet normal 0.866025 -0.5 0
    outer loop
      vertex 8.09017 -5.87785 2
      vertex 9.13545 -4.06737 0
      vertex 9.13545 -4.06737 2
    endloop
  endfacet
  facet normal 0.866025 -0.5 0
    outer loop
      vertex 9.13545 -4.06737 0
      vertex 8.09017 -5.87785 2
      vertex 8.09017 -5.87785 0
    endloop
  endfacet
  facet normal -0.207912 -0.978148 0
    outer loop
      vertex -3.09017 -9.51056 0
      vertex -1.04528 -9.94522 2
      vertex -3.09017 -9.51056 2
    endloop
  endfacet
  facet normal -0.207912 -0.978148 -0
    outer loop
      vertex -1.04528 -9.94522 2
      vertex -3.09017 -9.51056 0
      vertex -1.04528 -9.94522 0
    endloop
  endfacet
endsolid OpenSCAD_Model
