solid OpenSCAD_Model
  facet normal 0 0 1
    outer loop
      vertex 0.854764 3.74497 15
      vertex 12.7485 15.4103 15
      vertex 11.108 16.6021 15
    endloop
  endfacet
  facet normal 0 -0 1
    outer loop
      vertex 3.46087 1.66667 15
      vertex 12.7485 15.4103 15
      vertex 2.12475 2.56838 15
    endloop
  endfacet
  facet normal 0 0 1
    outer loop
      vertex 20 0 15
      vertex 3.33333 0 15
      vertex 3.46087 -1.66667 15
    endloop
  endfacet
  facet normal 0 0 1
    outer loop
      vertex 3.46087 1.66667 15
      vertex 3.30705 0.417777 15
      vertex 3.33333 0 15
    endloop
  endfacet
  facet normal 0 0 1
    outer loop
      vertex 3.46087 1.66667 15
      vertex 3.22861 0.828966 15
      vertex 3.30705 0.417777 15
    endloop
  endfacet
  facet normal 0 0 1
    outer loop
      vertex 3.46087 1.66667 15
      vertex 3.09925 1.22708 15
      vertex 3.22861 0.828966 15
    endloop
  endfacet
  facet normal 0 0 1
    outer loop
      vertex 12.7485 15.4103 15
      vertex 3.46087 1.66667 15
      vertex 13.7048 14.5122 15
    endloop
  endfacet
  facet normal 0 0 1
    outer loop
      vertex 3.46087 1.66667 15
      vertex 2.92102 1.60585 15
      vertex 3.09925 1.22708 15
    endloop
  endfacet
  facet normal 0 0 1
    outer loop
      vertex 3.46087 1.66667 15
      vertex 2.69672 1.95928 15
      vertex 2.92102 1.60585 15
    endloop
  endfacet
  facet normal 0 0 1
    outer loop
      vertex 3.46087 1.66667 15
      vertex 2.4299 2.28182 15
      vertex 2.69672 1.95928 15
    endloop
  endfacet
  facet normal 0 0 1
    outer loop
      vertex 3.46087 1.66667 15
      vertex 2.12475 2.56838 15
      vertex 2.4299 2.28182 15
    endloop
  endfacet
  facet normal 0 0 1
    outer loop
      vertex 12.7485 15.4103 15
      vertex 0.854764 3.74497 15
      vertex 2.12475 2.56838 15
    endloop
  endfacet
  facet normal 0 0 1
    outer loop
      vertex 2.12475 2.56838 15
      vertex 0.854764 3.74497 15
      vertex 1.78609 2.81443 15
    endloop
  endfacet
  facet normal 0 0 1
    outer loop
      vertex 1.78609 2.81443 15
      vertex 0.854764 3.74497 15
      vertex 1.41926 3.01609 15
    endloop
  endfacet
  facet normal 0 0 1
    outer loop
      vertex 1.41926 3.01609 15
      vertex 0.854764 3.74497 15
      vertex 1.03006 3.17019 15
    endloop
  endfacet
  facet normal 0 0 1
    outer loop
      vertex 0.854764 3.74497 15
      vertex 0.624604 3.27429 15
      vertex 1.03006 3.17019 15
    endloop
  endfacet
  facet normal 0 0 1
    outer loop
      vertex 0.854764 3.74497 15
      vertex 0.209302 3.32676 15
      vertex 0.624604 3.27429 15
    endloop
  endfacet
  facet normal 0 0 1
    outer loop
      vertex 0.854764 3.74497 15
      vertex -0.209302 3.32676 15
      vertex 0.209302 3.32676 15
    endloop
  endfacet
  facet normal 0 0 1
    outer loop
      vertex 0.854764 3.74497 15
      vertex -0.624604 3.27429 15
      vertex -0.209302 3.32676 15
    endloop
  endfacet
  facet normal 0 0 1
    outer loop
      vertex -3.74763 19.6457 15
      vertex -0.624604 3.27429 15
      vertex 0.854764 3.74497 15
    endloop
  endfacet
  facet normal 0 0 1
    outer loop
      vertex -1.78609 2.81443 15
      vertex -2.395 3.00323 15
      vertex -2.12475 2.56838 15
    endloop
  endfacet
  facet normal 0 0 1
    outer loop
      vertex -1.41926 3.01609 15
      vertex -2.395 3.00323 15
      vertex -1.78609 2.81443 15
    endloop
  endfacet
  facet normal 0 0 1
    outer loop
      vertex -1.03006 3.17019 15
      vertex -2.395 3.00323 15
      vertex -1.41926 3.01609 15
    endloop
  endfacet
  facet normal 0 -0 1
    outer loop
      vertex -2.395 3.00323 15
      vertex -0.624604 3.27429 15
      vertex -3.74763 19.6457 15
    endloop
  endfacet
  facet normal -0 0 1
    outer loop
      vertex -3.74763 19.6457 15
      vertex 0.854764 3.74497 15
      vertex -2.80176 19.7652 15
    endloop
  endfacet
  facet normal 0 0 1
    outer loop
      vertex -0.624604 3.27429 15
      vertex -2.395 3.00323 15
      vertex -1.03006 3.17019 15
    endloop
  endfacet
  facet normal 0 0 1
    outer loop
      vertex -2.395 3.00323 15
      vertex -3.74763 19.6457 15
      vertex -6.05814 19.0525 15
    endloop
  endfacet
  facet normal -0 0 1
    outer loop
      vertex 3.46087 1.66667 15
      vertex 20 0 15
      vertex 19.8951 1.66667 15
    endloop
  endfacet
  facet normal 0 0 1
    outer loop
      vertex 3.33333 0 15
      vertex 20 0 15
      vertex 3.46087 1.66667 15
    endloop
  endfacet
  facet normal 0 0 1
    outer loop
      vertex 20 0 15
      vertex 3.46087 -1.66667 15
      vertex 19.8951 -1.66667 15
    endloop
  endfacet
  facet normal 0 0 1
    outer loop
      vertex 3.46087 -1.66667 15
      vertex 12.7485 -15.4103 15
      vertex 13.7048 -14.5122 15
    endloop
  endfacet
  facet normal 0 0 1
    outer loop
      vertex 12.7485 -15.4103 15
      vertex 3.46087 -1.66667 15
      vertex 2.12475 -2.56838 15
    endloop
  endfacet
  facet normal -0 0 1
    outer loop
      vertex 3.30705 -0.417777 15
      vertex 3.46087 -1.66667 15
      vertex 3.33333 0 15
    endloop
  endfacet
  facet normal -0 0 1
    outer loop
      vertex 3.22861 -0.828966 15
      vertex 3.46087 -1.66667 15
      vertex 3.30705 -0.417777 15
    endloop
  endfacet
  facet normal -0 0 1
    outer loop
      vertex 3.09925 -1.22708 15
      vertex 3.46087 -1.66667 15
      vertex 3.22861 -0.828966 15
    endloop
  endfacet
  facet normal -0 0 1
    outer loop
      vertex 2.92102 -1.60585 15
      vertex 3.46087 -1.66667 15
      vertex 3.09925 -1.22708 15
    endloop
  endfacet
  facet normal 0 0 1
    outer loop
      vertex 2.69672 -1.95928 15
      vertex 3.46087 -1.66667 15
      vertex 2.92102 -1.60585 15
    endloop
  endfacet
  facet normal 0 0 1
    outer loop
      vertex 2.4299 -2.28182 15
      vertex 3.46087 -1.66667 15
      vertex 2.69672 -1.95928 15
    endloop
  endfacet
  facet normal 0 0 1
    outer loop
      vertex 2.12475 -2.56838 15
      vertex 3.46087 -1.66667 15
      vertex 2.4299 -2.28182 15
    endloop
  endfacet
  facet normal -0 0 1
    outer loop
      vertex 0.854764 -3.74497 15
      vertex 12.7485 -15.4103 15
      vertex 2.12475 -2.56838 15
    endloop
  endfacet
  facet normal 0 0 1
    outer loop
      vertex 0.854764 -3.74497 15
      vertex 2.12475 -2.56838 15
      vertex 1.78609 -2.81443 15
    endloop
  endfacet
  facet normal 0 0 1
    outer loop
      vertex 0.854764 -3.74497 15
      vertex 1.78609 -2.81443 15
      vertex 1.41926 -3.01609 15
    endloop
  endfacet
  facet normal 0 0 1
    outer loop
      vertex 0.854764 -3.74497 15
      vertex 1.41926 -3.01609 15
      vertex 1.03006 -3.17019 15
    endloop
  endfacet
  facet normal 0 0 1
    outer loop
      vertex 12.7485 -15.4103 15
      vertex 0.854764 -3.74497 15
      vertex 11.108 -16.6021 15
    endloop
  endfacet
  facet normal -0 0 1
    outer loop
      vertex 0.624604 -3.27429 15
      vertex 0.854764 -3.74497 15
      vertex 1.03006 -3.17019 15
    endloop
  endfacet
  facet normal -0 0 1
    outer loop
      vertex 0.209302 -3.32676 15
      vertex 0.854764 -3.74497 15
      vertex 0.624604 -3.27429 15
    endloop
  endfacet
  facet normal -0 0 1
    outer loop
      vertex -0.209302 -3.32676 15
      vertex 0.854764 -3.74497 15
      vertex 0.209302 -3.32676 15
    endloop
  endfacet
  facet normal 0 0 1
    outer loop
      vertex -0.624604 -3.27429 15
      vertex 0.854764 -3.74497 15
      vertex -0.209302 -3.32676 15
    endloop
  endfacet
  facet normal 0 0 1
    outer loop
      vertex -3.74763 -19.6457 15
      vertex -0.624604 -3.27429 15
      vertex -1.03006 -3.17019 15
    endloop
  endfacet
  facet normal 0 0 1
    outer loop
      vertex -0.624604 -3.27429 15
      vertex -3.74763 -19.6457 15
      vertex 0.854764 -3.74497 15
    endloop
  endfacet
  facet normal 0 0 1
    outer loop
      vertex -6.05814 -19.0525 15
      vertex -1.03006 -3.17019 15
      vertex -1.41926 -3.01609 15
    endloop
  endfacet
  facet normal 0 0 1
    outer loop
      vertex -6.05814 -19.0525 15
      vertex -1.41926 -3.01609 15
      vertex -1.78609 -2.81443 15
    endloop
  endfacet
  facet normal 0 0 1
    outer loop
      vertex -6.05814 -19.0525 15
      vertex -1.78609 -2.81443 15
      vertex -2.12475 -2.56838 15
    endloop
  endfacet
  facet normal 0 0 1
    outer loop
      vertex -6.05814 -19.0525 15
      vertex -2.12475 -2.56838 15
      vertex -2.26556 -2.43614 15
    endloop
  endfacet
  facet normal 0 0 1
    outer loop
      vertex 0.854764 -3.74497 15
      vertex -3.74763 -19.6457 15
      vertex -2.80176 -19.7652 15
    endloop
  endfacet
  facet normal 0 0 1
    outer loop
      vertex -1.03006 -3.17019 15
      vertex -6.05814 -19.0525 15
      vertex -3.74763 -19.6457 15
    endloop
  endfacet
  facet normal 0 0 1
    outer loop
      vertex -2.395 3.00323 15
      vertex -2.4299 2.28182 15
      vertex -2.12475 2.56838 15
    endloop
  endfacet
  facet normal 0 0 1
    outer loop
      vertex -2.395 3.00323 15
      vertex -2.69672 1.95928 15
      vertex -2.4299 2.28182 15
    endloop
  endfacet
  facet normal 0 0 1
    outer loop
      vertex -2.395 3.00323 15
      vertex -2.92102 1.60585 15
      vertex -2.69672 1.95928 15
    endloop
  endfacet
  facet normal 0 0 1
    outer loop
      vertex -17.5261 9.63507 15
      vertex -2.92102 1.60585 15
      vertex -2.395 3.00323 15
    endloop
  endfacet
  facet normal -0 0 1
    outer loop
      vertex -18.6678 7.14008 15
      vertex -3.09925 1.22708 15
      vertex -18.5955 7.36249 15
    endloop
  endfacet
  facet normal -0 0 1
    outer loop
      vertex -18.5955 7.36249 15
      vertex -3.09925 1.22708 15
      vertex -17.5261 9.63507 15
    endloop
  endfacet
  facet normal 0 0 1
    outer loop
      vertex -2.92102 1.60585 15
      vertex -17.5261 9.63507 15
      vertex -3.09925 1.22708 15
    endloop
  endfacet
  facet normal -0 0 1
    outer loop
      vertex -17.5261 9.63507 15
      vertex -2.395 3.00323 15
      vertex -17.2078 10.1367 15
    endloop
  endfacet
  facet normal 0 0 1
    outer loop
      vertex -3.09925 1.22708 15
      vertex -18.6678 7.14008 15
      vertex -3.22861 0.828966 15
    endloop
  endfacet
  facet normal 0 0 1
    outer loop
      vertex -3.22861 0.828966 15
      vertex -18.6678 7.14008 15
      vertex -3.30705 0.417777 15
    endloop
  endfacet
  facet normal 0 0 1
    outer loop
      vertex -3.30705 0.417777 15
      vertex -18.6678 7.14008 15
      vertex -3.33333 4.08216e-16 15
    endloop
  endfacet
  facet normal 0 0 1
    outer loop
      vertex -3.33333 4.08216e-16 15
      vertex -18.6678 7.14008 15
      vertex -3.31746 -0.252255 15
    endloop
  endfacet
  facet normal 0 0 -1
    outer loop
      vertex 0.854764 -3.74497 0
      vertex 12.7485 -15.4103 0
      vertex 11.108 -16.6021 0
    endloop
  endfacet
  facet normal 0 0 -1
    outer loop
      vertex 12.7485 -15.4103 0
      vertex 3.46087 -1.66667 0
      vertex 13.7048 -14.5122 0
    endloop
  endfacet
  facet normal -0 0 -1
    outer loop
      vertex 3.46087 -1.66667 0
      vertex 0.854764 -3.74497 0
      vertex 3.46087 1.66667 0
    endloop
  endfacet
  facet normal 0 0 -1
    outer loop
      vertex 12.7485 -15.4103 0
      vertex 0.854764 -3.74497 0
      vertex 3.46087 -1.66667 0
    endloop
  endfacet
  facet normal 0 0 -1
    outer loop
      vertex 3.46087 -1.66667 0
      vertex 20 0 0
      vertex 19.8951 -1.66667 0
    endloop
  endfacet
  facet normal 0 0 -1
    outer loop
      vertex 3.46087 1.66667 0
      vertex 20 0 0
      vertex 3.46087 -1.66667 0
    endloop
  endfacet
  facet normal 0 0 -1
    outer loop
      vertex 20 0 0
      vertex 3.46087 1.66667 0
      vertex 19.8951 1.66667 0
    endloop
  endfacet
  facet normal 0 0 -1
    outer loop
      vertex 3.46087 1.66667 0
      vertex 12.7485 15.4103 0
      vertex 13.7048 14.5122 0
    endloop
  endfacet
  facet normal 0 0 -1
    outer loop
      vertex 0.854764 3.74497 0
      vertex 12.7485 15.4103 0
      vertex 3.46087 1.66667 0
    endloop
  endfacet
  facet normal -0 0 -1
    outer loop
      vertex 12.7485 15.4103 0
      vertex 0.854764 3.74497 0
      vertex 11.108 16.6021 0
    endloop
  endfacet
  facet normal 0 0 -1
    outer loop
      vertex 0.854764 -3.74497 0
      vertex 0.854764 3.74497 0
      vertex 3.46087 1.66667 0
    endloop
  endfacet
  facet normal 0 0 -1
    outer loop
      vertex 0.854764 -3.74497 0
      vertex -2.395 -3.00323 0
      vertex 0.854764 3.74497 0
    endloop
  endfacet
  facet normal 0 0 -1
    outer loop
      vertex -3.74763 -19.6457 0
      vertex 0.854764 -3.74497 0
      vertex -2.80176 -19.7652 0
    endloop
  endfacet
  facet normal -0 0 -1
    outer loop
      vertex 0.854764 -3.74497 0
      vertex -3.74763 -19.6457 0
      vertex -2.395 -3.00323 0
    endloop
  endfacet
  facet normal 0 0 -1
    outer loop
      vertex -2.395 -3.00323 0
      vertex -3.74763 -19.6457 0
      vertex -6.05814 -19.0525 0
    endloop
  endfacet
  facet normal 0 0 -1
    outer loop
      vertex -2.395 -3.00323 0
      vertex -3.84127 6.346e-16 0
      vertex -2.395 3.00323 0
    endloop
  endfacet
  facet normal 0 0 -1
    outer loop
      vertex -17.5261 -9.63507 0
      vertex -2.395 -3.00323 0
      vertex -17.2078 -10.1367 0
    endloop
  endfacet
  facet normal -0 0 -1
    outer loop
      vertex -2.395 -3.00323 0
      vertex -17.5261 -9.63507 0
      vertex -3.84127 6.346e-16 0
    endloop
  endfacet
  facet normal 0 0 -1
    outer loop
      vertex -18.5955 -7.36249 0
      vertex -3.84127 6.346e-16 0
      vertex -17.5261 -9.63507 0
    endloop
  endfacet
  facet normal 0 0 -1
    outer loop
      vertex -3.84127 6.346e-16 0
      vertex -18.5955 -7.36249 0
      vertex -18.6678 -7.14008 0
    endloop
  endfacet
  facet normal 0 0 -1
    outer loop
      vertex -2.395 3.00323 0
      vertex 0.854764 3.74497 0
      vertex -2.395 -3.00323 0
    endloop
  endfacet
  facet normal 0 0 -1
    outer loop
      vertex -3.74763 19.6457 0
      vertex 0.854764 3.74497 0
      vertex -2.395 3.00323 0
    endloop
  endfacet
  facet normal 0 0 -1
    outer loop
      vertex 0.854764 3.74497 0
      vertex -3.74763 19.6457 0
      vertex -2.80176 19.7652 0
    endloop
  endfacet
  facet normal 0 -0 -1
    outer loop
      vertex -3.74763 19.6457 0
      vertex -2.395 3.00323 0
      vertex -6.05814 19.0525 0
    endloop
  endfacet
  facet normal 0 0 -1
    outer loop
      vertex -17.5261 9.63507 0
      vertex -2.395 3.00323 0
      vertex -3.84127 6.346e-16 0
    endloop
  endfacet
  facet normal 0 0 -1
    outer loop
      vertex -2.395 3.00323 0
      vertex -17.5261 9.63507 0
      vertex -17.2078 10.1367 0
    endloop
  endfacet
  facet normal 0 0 -1
    outer loop
      vertex -3.84127 6.346e-16 0
      vertex -18.5955 7.36249 0
      vertex -17.5261 9.63507 0
    endloop
  endfacet
  facet normal 0 -0 -1
    outer loop
      vertex -18.5955 7.36249 0
      vertex -3.84127 6.346e-16 0
      vertex -18.6678 7.14008 0
    endloop
  endfacet
  facet normal 0.781831 -0.62349 0
    outer loop
      vertex 3.46087 1.66667 15
      vertex 13.7048 14.5122 0
      vertex 13.7048 14.5122 15
    endloop
  endfacet
  facet normal 0.781831 -0.62349 0
    outer loop
      vertex 13.7048 14.5122 0
      vertex 3.46087 1.66667 15
      vertex 3.46087 1.66667 0
    endloop
  endfacet
  facet normal -0.781831 0.62349 0
    outer loop
      vertex 0.854764 3.74497 0
      vertex 11.108 16.6021 15
      vertex 11.108 16.6021 0
    endloop
  endfacet
  facet normal -0.781831 0.62349 0
    outer loop
      vertex 11.108 16.6021 15
      vertex 0.854764 3.74497 0
      vertex 0.854764 3.74497 15
    endloop
  endfacet
  facet normal 0.974928 0.222521 0
    outer loop
      vertex 0.854764 3.74497 15
      vertex -2.80176 19.7652 0
      vertex -2.80176 19.7652 15
    endloop
  endfacet
  facet normal 0.974928 0.222521 0
    outer loop
      vertex -2.80176 19.7652 0
      vertex 0.854764 3.74497 15
      vertex 0.854764 3.74497 0
    endloop
  endfacet
  facet normal -0.974928 -0.222521 0
    outer loop
      vertex -2.395 3.00323 0
      vertex -6.05814 19.0525 15
      vertex -6.05814 19.0525 0
    endloop
  endfacet
  facet normal -0.974928 -0.222521 0
    outer loop
      vertex -6.05814 19.0525 15
      vertex -2.395 3.00323 0
      vertex -2.395 3.00323 15
    endloop
  endfacet
  facet normal 0.433884 0.900969 -0
    outer loop
      vertex -2.395 3.00323 0
      vertex -17.2078 10.1367 15
      vertex -2.395 3.00323 15
    endloop
  endfacet
  facet normal 0.433884 0.900969 0
    outer loop
      vertex -17.2078 10.1367 15
      vertex -2.395 3.00323 0
      vertex -17.2078 10.1367 0
    endloop
  endfacet
  facet normal -0.433884 -0.900969 0
    outer loop
      vertex -18.6678 7.14008 0
      vertex -3.84127 6.346e-16 15
      vertex -18.6678 7.14008 15
    endloop
  endfacet
  facet normal -0.433884 -0.900969 -0
    outer loop
      vertex -3.84127 6.346e-16 15
      vertex -18.6678 7.14008 0
      vertex -3.84127 6.346e-16 0
    endloop
  endfacet
  facet normal -0 -0 -1
    outer loop
      vertex -3.84127 6.346e-16 15
      vertex -3.31746 -0.252255 15
      vertex -18.6678 7.14008 15
    endloop
  endfacet
  facet normal 0 0 1
    outer loop
      vertex -2.4299 -2.28182 15
      vertex -2.395 -3.00323 15
      vertex -2.26556 -2.43614 15
    endloop
  endfacet
  facet normal 0 0 1
    outer loop
      vertex -2.69672 -1.95928 15
      vertex -2.395 -3.00323 15
      vertex -2.4299 -2.28182 15
    endloop
  endfacet
  facet normal 0 0 1
    outer loop
      vertex -2.92102 -1.60585 15
      vertex -2.395 -3.00323 15
      vertex -2.69672 -1.95928 15
    endloop
  endfacet
  facet normal 0 0 1
    outer loop
      vertex -17.5261 -9.63507 15
      vertex -2.92102 -1.60585 15
      vertex -3.09925 -1.22708 15
    endloop
  endfacet
  facet normal 0 0 1
    outer loop
      vertex -3.84127 6.346e-16 15
      vertex -3.30705 -0.417777 15
      vertex -3.31746 -0.252255 15
    endloop
  endfacet
  facet normal 0 0 1
    outer loop
      vertex -3.84127 6.346e-16 15
      vertex -3.22861 -0.828966 15
      vertex -3.30705 -0.417777 15
    endloop
  endfacet
  facet normal 0 0 1
    outer loop
      vertex -3.84127 6.346e-16 15
      vertex -3.09925 -1.22708 15
      vertex -3.22861 -0.828966 15
    endloop
  endfacet
  facet normal 0 0 1
    outer loop
      vertex -17.5261 -9.63507 15
      vertex -3.09925 -1.22708 15
      vertex -3.84127 6.346e-16 15
    endloop
  endfacet
  facet normal 0 0 1
    outer loop
      vertex -2.92102 -1.60585 15
      vertex -17.5261 -9.63507 15
      vertex -2.395 -3.00323 15
    endloop
  endfacet
  facet normal 0 0 1
    outer loop
      vertex -2.395 -3.00323 15
      vertex -17.5261 -9.63507 15
      vertex -17.2078 -10.1367 15
    endloop
  endfacet
  facet normal 0 0 1
    outer loop
      vertex -3.84127 6.346e-16 15
      vertex -18.5955 -7.36249 15
      vertex -17.5261 -9.63507 15
    endloop
  endfacet
  facet normal 0 -0 1
    outer loop
      vertex -18.5955 -7.36249 15
      vertex -3.84127 6.346e-16 15
      vertex -18.6678 -7.14008 15
    endloop
  endfacet
  facet normal -0.433884 0.900969 0
    outer loop
      vertex -3.84127 6.346e-16 0
      vertex -18.6678 -7.14008 15
      vertex -3.84127 6.346e-16 15
    endloop
  endfacet
  facet normal -0.433884 0.900969 0
    outer loop
      vertex -18.6678 -7.14008 15
      vertex -3.84127 6.346e-16 0
      vertex -18.6678 -7.14008 0
    endloop
  endfacet
  facet normal 0.433884 -0.900969 0
    outer loop
      vertex -17.2078 -10.1367 0
      vertex -2.395 -3.00323 15
      vertex -17.2078 -10.1367 15
    endloop
  endfacet
  facet normal 0.433884 -0.900969 0
    outer loop
      vertex -2.395 -3.00323 15
      vertex -17.2078 -10.1367 0
      vertex -2.395 -3.00323 0
    endloop
  endfacet
  facet normal -0.974928 0.222521 0
    outer loop
      vertex -6.05814 -19.0525 0
      vertex -2.395 -3.00323 15
      vertex -2.395 -3.00323 0
    endloop
  endfacet
  facet normal -0.974928 0.222521 0
    outer loop
      vertex -2.395 -3.00323 15
      vertex -6.05814 -19.0525 0
      vertex -6.05814 -19.0525 15
    endloop
  endfacet
  facet normal 0 0 1
    outer loop
      vertex -6.05814 -19.0525 15
      vertex -2.26556 -2.43614 15
      vertex -2.395 -3.00323 15
    endloop
  endfacet
  facet normal 0.974928 -0.222521 0
    outer loop
      vertex -2.80176 -19.7652 15
      vertex 0.854764 -3.74497 0
      vertex 0.854764 -3.74497 15
    endloop
  endfacet
  facet normal 0.974928 -0.222521 0
    outer loop
      vertex 0.854764 -3.74497 0
      vertex -2.80176 -19.7652 15
      vertex -2.80176 -19.7652 0
    endloop
  endfacet
  facet normal -0.781831 -0.62349 0
    outer loop
      vertex 11.108 -16.6021 0
      vertex 0.854764 -3.74497 15
      vertex 0.854764 -3.74497 0
    endloop
  endfacet
  facet normal -0.781831 -0.62349 0
    outer loop
      vertex 0.854764 -3.74497 15
      vertex 11.108 -16.6021 0
      vertex 11.108 -16.6021 15
    endloop
  endfacet
  facet normal 0.781831 0.62349 0
    outer loop
      vertex 13.7048 -14.5122 15
      vertex 3.46087 -1.66667 0
      vertex 3.46087 -1.66667 15
    endloop
  endfacet
  facet normal 0.781831 0.62349 0
    outer loop
      vertex 3.46087 -1.66667 0
      vertex 13.7048 -14.5122 15
      vertex 13.7048 -14.5122 0
    endloop
  endfacet
  facet normal 0 1 -0
    outer loop
      vertex 19.8951 1.66667 0
      vertex 3.46087 1.66667 15
      vertex 19.8951 1.66667 15
    endloop
  endfacet
  facet normal 0 1 0
    outer loop
      vertex 3.46087 1.66667 15
      vertex 19.8951 1.66667 0
      vertex 3.46087 1.66667 0
    endloop
  endfacet
  facet normal 0 -1 0
    outer loop
      vertex 3.46087 -1.66667 0
      vertex 19.8951 -1.66667 15
      vertex 3.46087 -1.66667 15
    endloop
  endfacet
  facet normal 0 -1 -0
    outer loop
      vertex 19.8951 -1.66667 15
      vertex 3.46087 -1.66667 0
      vertex 19.8951 -1.66667 0
    endloop
  endfacet
  facet normal 0.998027 0.0627909 0
    outer loop
      vertex 20 0 15
      vertex 19.8951 1.66667 0
      vertex 19.8951 1.66667 15
    endloop
  endfacet
  facet normal 0.998027 0.0627909 0
    outer loop
      vertex 19.8951 1.66667 0
      vertex 20 0 15
      vertex 20 0 0
    endloop
  endfacet
  facet normal 0.684547 0.728968 -0
    outer loop
      vertex 13.7048 14.5122 0
      vertex 12.7485 15.4103 15
      vertex 13.7048 14.5122 15
    endloop
  endfacet
  facet normal 0.684547 0.728968 0
    outer loop
      vertex 12.7485 15.4103 15
      vertex 13.7048 14.5122 0
      vertex 12.7485 15.4103 0
    endloop
  endfacet
  facet normal -0.951056 0.30902 0
    outer loop
      vertex -18.6678 7.14008 0
      vertex -18.5955 7.36249 15
      vertex -18.5955 7.36249 0
    endloop
  endfacet
  facet normal -0.951056 0.30902 0
    outer loop
      vertex -18.5955 7.36249 15
      vertex -18.6678 7.14008 0
      vertex -18.6678 7.14008 15
    endloop
  endfacet
  facet normal -0.844327 0.535827 0
    outer loop
      vertex -17.5261 9.63507 0
      vertex -17.2078 10.1367 15
      vertex -17.2078 10.1367 0
    endloop
  endfacet
  facet normal -0.844327 0.535827 0
    outer loop
      vertex -17.2078 10.1367 15
      vertex -17.5261 9.63507 0
      vertex -17.5261 9.63507 15
    endloop
  endfacet
  facet normal -0.24869 0.968583 0
    outer loop
      vertex -3.74763 19.6457 0
      vertex -6.05814 19.0525 15
      vertex -3.74763 19.6457 15
    endloop
  endfacet
  facet normal -0.24869 0.968583 0
    outer loop
      vertex -6.05814 19.0525 15
      vertex -3.74763 19.6457 0
      vertex -6.05814 19.0525 0
    endloop
  endfacet
  facet normal -0.24869 -0.968583 0
    outer loop
      vertex -6.05814 -19.0525 0
      vertex -3.74763 -19.6457 15
      vertex -6.05814 -19.0525 15
    endloop
  endfacet
  facet normal -0.24869 -0.968583 -0
    outer loop
      vertex -3.74763 -19.6457 15
      vertex -6.05814 -19.0525 0
      vertex -3.74763 -19.6457 0
    endloop
  endfacet
  facet normal 0.587785 0.809017 -0
    outer loop
      vertex 12.7485 15.4103 0
      vertex 11.108 16.6021 15
      vertex 12.7485 15.4103 15
    endloop
  endfacet
  facet normal 0.587785 0.809017 0
    outer loop
      vertex 11.108 16.6021 15
      vertex 12.7485 15.4103 0
      vertex 11.108 16.6021 0
    endloop
  endfacet
  facet normal -0.904827 0.425779 0
    outer loop
      vertex -18.5955 7.36249 0
      vertex -17.5261 9.63507 15
      vertex -17.5261 9.63507 0
    endloop
  endfacet
  facet normal -0.904827 0.425779 0
    outer loop
      vertex -17.5261 9.63507 15
      vertex -18.5955 7.36249 0
      vertex -18.5955 7.36249 15
    endloop
  endfacet
  facet normal -0.125334 0.992115 0
    outer loop
      vertex -2.80176 19.7652 0
      vertex -3.74763 19.6457 15
      vertex -2.80176 19.7652 15
    endloop
  endfacet
  facet normal -0.125334 0.992115 0
    outer loop
      vertex -3.74763 19.6457 15
      vertex -2.80176 19.7652 0
      vertex -3.74763 19.6457 0
    endloop
  endfacet
  facet normal 0.998027 -0.0627909 0
    outer loop
      vertex 19.8951 -1.66667 15
      vertex 20 0 0
      vertex 20 0 15
    endloop
  endfacet
  facet normal 0.998027 -0.0627909 0
    outer loop
      vertex 20 0 0
      vertex 19.8951 -1.66667 15
      vertex 19.8951 -1.66667 0
    endloop
  endfacet
  facet normal 0.684547 -0.728968 0
    outer loop
      vertex 12.7485 -15.4103 0
      vertex 13.7048 -14.5122 15
      vertex 12.7485 -15.4103 15
    endloop
  endfacet
  facet normal 0.684547 -0.728968 0
    outer loop
      vertex 13.7048 -14.5122 15
      vertex 12.7485 -15.4103 0
      vertex 13.7048 -14.5122 0
    endloop
  endfacet
  facet normal -0.125334 -0.992115 0
    outer loop
      vertex -3.74763 -19.6457 0
      vertex -2.80176 -19.7652 15
      vertex -3.74763 -19.6457 15
    endloop
  endfacet
  facet normal -0.125334 -0.992115 -0
    outer loop
      vertex -2.80176 -19.7652 15
      vertex -3.74763 -19.6457 0
      vertex -2.80176 -19.7652 0
    endloop
  endfacet
  facet normal -0.844327 -0.535827 0
    outer loop
      vertex -17.2078 -10.1367 0
      vertex -17.5261 -9.63507 15
      vertex -17.5261 -9.63507 0
    endloop
  endfacet
  facet normal -0.844327 -0.535827 0
    outer loop
      vertex -17.5261 -9.63507 15
      vertex -17.2078 -10.1367 0
      vertex -17.2078 -10.1367 15
    endloop
  endfacet
  facet normal 0.587785 -0.809017 0
    outer loop
      vertex 11.108 -16.6021 0
      vertex 12.7485 -15.4103 15
      vertex 11.108 -16.6021 15
    endloop
  endfacet
  facet normal 0.587785 -0.809017 0
    outer loop
      vertex 12.7485 -15.4103 15
      vertex 11.108 -16.6021 0
      vertex 12.7485 -15.4103 0
    endloop
  endfacet
  facet normal -0.951056 -0.30902 0
    outer loop
      vertex -18.5955 -7.36249 0
      vertex -18.6678 -7.14008 15
      vertex -18.6678 -7.14008 0
    endloop
  endfacet
  facet normal -0.951056 -0.30902 0
    outer loop
      vertex -18.6678 -7.14008 15
      vertex -18.5955 -7.36249 0
      vertex -18.5955 -7.36249 15
    endloop
  endfacet
  facet normal -0.904827 -0.425779 0
    outer loop
      vertex -17.5261 -9.63507 0
      vertex -18.5955 -7.36249 15
      vertex -18.5955 -7.36249 0
    endloop
  endfacet
  facet normal -0.904827 -0.425779 0
    outer loop
      vertex -18.5955 -7.36249 15
      vertex -17.5261 -9.63507 0
      vertex -17.5261 -9.63507 15
    endloop
  endfacet
  facet normal 0.904827 0.425779 0
    outer loop
      vertex 3.09925 1.22708 23.0952
      vertex 2.92102 1.60585 15
      vertex 2.92102 1.60585 23.0952
    endloop
  endfacet
  facet normal 0.904827 0.425779 0
    outer loop
      vertex 2.92102 1.60585 15
      vertex 3.09925 1.22708 23.0952
      vertex 3.09925 1.22708 15
    endloop
  endfacet
  facet normal 0.844328 0.535827 0
    outer loop
      vertex 2.92102 1.60585 23.0952
      vertex 2.69672 1.95928 15
      vertex 2.69672 1.95928 23.0952
    endloop
  endfacet
  facet normal 0.844328 0.535827 0
    outer loop
      vertex 2.69672 1.95928 15
      vertex 2.92102 1.60585 23.0952
      vertex 2.92102 1.60585 15
    endloop
  endfacet
  facet normal 0.125333 0.992115 -0
    outer loop
      vertex 0.624604 3.27429 15
      vertex 0.209302 3.32676 30
      vertex 0.624604 3.27429 30
    endloop
  endfacet
  facet normal 0.125333 0.992115 0
    outer loop
      vertex 0.209302 3.32676 30
      vertex 0.624604 3.27429 15
      vertex 0.209302 3.32676 15
    endloop
  endfacet
  facet normal 0.24869 0.968583 -0
    outer loop
      vertex 1.03006 3.17019 15
      vertex 0.624604 3.27429 30
      vertex 1.03006 3.17019 30
    endloop
  endfacet
  facet normal 0.24869 0.968583 0
    outer loop
      vertex 0.624604 3.27429 30
      vertex 1.03006 3.17019 15
      vertex 0.624604 3.27429 15
    endloop
  endfacet
  facet normal -0.481754 0.876307 0
    outer loop
      vertex -1.41926 3.01609 15
      vertex -1.78609 2.81443 30
      vertex -1.41926 3.01609 30
    endloop
  endfacet
  facet normal -0.481754 0.876307 0
    outer loop
      vertex -1.78609 2.81443 30
      vertex -1.41926 3.01609 15
      vertex -1.78609 2.81443 15
    endloop
  endfacet
  facet normal -0.951056 0.309017 0
    outer loop
      vertex -3.22861 0.828966 15
      vertex -3.09925 1.22708 23.0952
      vertex -3.09925 1.22708 15
    endloop
  endfacet
  facet normal -0.951056 0.309017 0
    outer loop
      vertex -3.09925 1.22708 23.0952
      vertex -3.22861 0.828966 15
      vertex -3.22861 0.828966 23.0952
    endloop
  endfacet
  facet normal 0 1 -0
    outer loop
      vertex 0.209302 3.32676 15
      vertex -0.209302 3.32676 30
      vertex 0.209302 3.32676 30
    endloop
  endfacet
  facet normal 0 1 0
    outer loop
      vertex -0.209302 3.32676 30
      vertex 0.209302 3.32676 15
      vertex -0.209302 3.32676 15
    endloop
  endfacet
  facet normal 0.481754 0.876307 -0
    outer loop
      vertex 1.78609 2.81443 15
      vertex 1.41926 3.01609 30
      vertex 1.78609 2.81443 30
    endloop
  endfacet
  facet normal 0.481754 0.876307 0
    outer loop
      vertex 1.41926 3.01609 30
      vertex 1.78609 2.81443 15
      vertex 1.41926 3.01609 15
    endloop
  endfacet
  facet normal -0.998027 -0.0627898 0
    outer loop
      vertex -3.31746 -0.252255 15
      vertex -3.33333 4.08216e-16 23.0952
      vertex -3.33333 4.08216e-16 15
    endloop
  endfacet
  facet normal -0.998027 -0.0627909 -0
    outer loop
      vertex -3.30705 -0.417777 23.0952
      vertex -3.31746 -0.252255 15
      vertex -3.30705 -0.417777 15
    endloop
  endfacet
  facet normal -0.998027 -0.0627903 1.36668e-08
    outer loop
      vertex -3.31746 -0.252255 15
      vertex -3.30705 -0.417777 23.0952
      vertex -3.33333 4.08216e-16 23.0952
    endloop
  endfacet
  facet normal -0.844328 0.535827 0
    outer loop
      vertex -2.92102 1.60585 15
      vertex -2.69672 1.95928 23.0952
      vertex -2.69672 1.95928 15
    endloop
  endfacet
  facet normal -0.844328 0.535827 0
    outer loop
      vertex -2.69672 1.95928 23.0952
      vertex -2.92102 1.60585 15
      vertex -2.92102 1.60585 23.0952
    endloop
  endfacet
  facet normal -0.587785 0.809017 0
    outer loop
      vertex -1.78609 2.81443 30
      vertex -1.92857 2.71091 23.0952
      vertex -1.92857 2.71091 30
    endloop
  endfacet
  facet normal -0.587785 0.809017 0
    outer loop
      vertex -1.78609 2.81443 15
      vertex -1.92857 2.71091 23.0952
      vertex -1.78609 2.81443 30
    endloop
  endfacet
  facet normal -0.587785 0.809017 -1.59196e-08
    outer loop
      vertex -2.12475 2.56838 15
      vertex -1.92857 2.71091 23.0952
      vertex -1.78609 2.81443 15
    endloop
  endfacet
  facet normal -0.587786 0.809017 0
    outer loop
      vertex -1.92857 2.71091 23.0952
      vertex -2.12475 2.56838 15
      vertex -2.12475 2.56838 23.0952
    endloop
  endfacet
  facet normal -0.368125 0.929776 0
    outer loop
      vertex -1.03006 3.17019 15
      vertex -1.41926 3.01609 30
      vertex -1.03006 3.17019 30
    endloop
  endfacet
  facet normal -0.368125 0.929776 0
    outer loop
      vertex -1.41926 3.01609 30
      vertex -1.03006 3.17019 15
      vertex -1.41926 3.01609 15
    endloop
  endfacet
  facet normal 0.998027 0.0627903 0
    outer loop
      vertex 3.33333 0 23.0952
      vertex 3.30705 0.417777 15
      vertex 3.30705 0.417777 23.0952
    endloop
  endfacet
  facet normal 0.998027 0.0627903 0
    outer loop
      vertex 3.30705 0.417777 15
      vertex 3.33333 0 23.0952
      vertex 3.33333 0 15
    endloop
  endfacet
  facet normal 0.951056 -0.309017 0
    outer loop
      vertex 3.09925 -1.22708 23.0952
      vertex 3.22861 -0.828966 15
      vertex 3.22861 -0.828966 23.0952
    endloop
  endfacet
  facet normal 0.951056 -0.309017 0
    outer loop
      vertex 3.22861 -0.828966 15
      vertex 3.09925 -1.22708 23.0952
      vertex 3.09925 -1.22708 15
    endloop
  endfacet
  facet normal -0.587786 -0.809017 -0
    outer loop
      vertex -2.12475 -2.56838 23.0952
      vertex -2.12475 -2.56838 15
      vertex -1.92857 -2.71091 23.0952
    endloop
  endfacet
  facet normal -0.587785 -0.809017 0
    outer loop
      vertex -1.92857 -2.71091 23.0952
      vertex -1.78609 -2.81443 30
      vertex -1.92857 -2.71091 30
    endloop
  endfacet
  facet normal -0.587785 -0.809017 0
    outer loop
      vertex -1.92857 -2.71091 23.0952
      vertex -1.78609 -2.81443 15
      vertex -1.78609 -2.81443 30
    endloop
  endfacet
  facet normal -0.587785 -0.809017 -1.59196e-08
    outer loop
      vertex -1.78609 -2.81443 15
      vertex -1.92857 -2.71091 23.0952
      vertex -2.12475 -2.56838 15
    endloop
  endfacet
  facet normal 0.587785 -0.809017 0
    outer loop
      vertex 1.78609 -2.81443 30
      vertex 1.92857 -2.71091 23.0952
      vertex 1.92857 -2.71091 30
    endloop
  endfacet
  facet normal 0.587785 -0.809017 0
    outer loop
      vertex 1.78609 -2.81443 15
      vertex 1.92857 -2.71091 23.0952
      vertex 1.78609 -2.81443 30
    endloop
  endfacet
  facet normal 0.587785 -0.809017 -1.59196e-08
    outer loop
      vertex 2.12475 -2.56838 15
      vertex 1.92857 -2.71091 23.0952
      vertex 1.78609 -2.81443 15
    endloop
  endfacet
  facet normal 0.587786 -0.809017 0
    outer loop
      vertex 1.92857 -2.71091 23.0952
      vertex 2.12475 -2.56838 15
      vertex 2.12475 -2.56838 23.0952
    endloop
  endfacet
  facet normal 0.951056 0.309017 0
    outer loop
      vertex 3.22861 0.828966 23.0952
      vertex 3.09925 1.22708 15
      vertex 3.09925 1.22708 23.0952
    endloop
  endfacet
  facet normal 0.951056 0.309017 0
    outer loop
      vertex 3.09925 1.22708 15
      vertex 3.22861 0.828966 23.0952
      vertex 3.22861 0.828966 15
    endloop
  endfacet
  facet normal 0.684547 0.728969 -0
    outer loop
      vertex 2.4299 2.28182 15
      vertex 2.12475 2.56838 23.0952
      vertex 2.4299 2.28182 23.0952
    endloop
  endfacet
  facet normal 0.684547 0.728969 0
    outer loop
      vertex 2.12475 2.56838 23.0952
      vertex 2.4299 2.28182 15
      vertex 2.12475 2.56838 15
    endloop
  endfacet
  facet normal 0.770513 0.637424 0
    outer loop
      vertex 2.69672 1.95928 23.0952
      vertex 2.4299 2.28182 15
      vertex 2.4299 2.28182 23.0952
    endloop
  endfacet
  facet normal 0.770513 0.637424 0
    outer loop
      vertex 2.4299 2.28182 15
      vertex 2.69672 1.95928 23.0952
      vertex 2.69672 1.95928 15
    endloop
  endfacet
  facet normal -0.125333 0.992115 0
    outer loop
      vertex -0.209302 3.32676 15
      vertex -0.624604 3.27429 30
      vertex -0.209302 3.32676 30
    endloop
  endfacet
  facet normal -0.125333 0.992115 0
    outer loop
      vertex -0.624604 3.27429 30
      vertex -0.209302 3.32676 15
      vertex -0.624604 3.27429 15
    endloop
  endfacet
  facet normal 0.368125 0.929776 -0
    outer loop
      vertex 1.41926 3.01609 15
      vertex 1.03006 3.17019 30
      vertex 1.41926 3.01609 30
    endloop
  endfacet
  facet normal 0.368125 0.929776 0
    outer loop
      vertex 1.03006 3.17019 30
      vertex 1.41926 3.01609 15
      vertex 1.03006 3.17019 15
    endloop
  endfacet
  facet normal 0.587786 0.809017 0
    outer loop
      vertex 2.12475 2.56838 23.0952
      vertex 2.12475 2.56838 15
      vertex 1.92857 2.71091 23.0952
    endloop
  endfacet
  facet normal 0.587785 0.809017 -0
    outer loop
      vertex 1.92857 2.71091 23.0952
      vertex 1.78609 2.81443 30
      vertex 1.92857 2.71091 30
    endloop
  endfacet
  facet normal 0.587785 0.809017 0
    outer loop
      vertex 1.92857 2.71091 23.0952
      vertex 1.78609 2.81443 15
      vertex 1.78609 2.81443 30
    endloop
  endfacet
  facet normal 0.587785 0.809017 -1.59196e-08
    outer loop
      vertex 1.78609 2.81443 15
      vertex 1.92857 2.71091 23.0952
      vertex 2.12475 2.56838 15
    endloop
  endfacet
  facet normal -0.982287 0.187381 0
    outer loop
      vertex -3.30705 0.417777 15
      vertex -3.22861 0.828966 23.0952
      vertex -3.22861 0.828966 15
    endloop
  endfacet
  facet normal -0.982287 0.187381 0
    outer loop
      vertex -3.22861 0.828966 23.0952
      vertex -3.30705 0.417777 15
      vertex -3.30705 0.417777 23.0952
    endloop
  endfacet
  facet normal -0.998027 0.0627903 0
    outer loop
      vertex -3.33333 4.08216e-16 15
      vertex -3.30705 0.417777 23.0952
      vertex -3.30705 0.417777 15
    endloop
  endfacet
  facet normal -0.998027 0.0627903 0
    outer loop
      vertex -3.30705 0.417777 23.0952
      vertex -3.33333 4.08216e-16 15
      vertex -3.33333 4.08216e-16 23.0952
    endloop
  endfacet
  facet normal -0.904827 0.425779 0
    outer loop
      vertex -3.09925 1.22708 15
      vertex -2.92102 1.60585 23.0952
      vertex -2.92102 1.60585 15
    endloop
  endfacet
  facet normal -0.904827 0.425779 0
    outer loop
      vertex -2.92102 1.60585 23.0952
      vertex -3.09925 1.22708 15
      vertex -3.09925 1.22708 23.0952
    endloop
  endfacet
  facet normal -0.24869 0.968583 0
    outer loop
      vertex -0.624604 3.27429 15
      vertex -1.03006 3.17019 30
      vertex -0.624604 3.27429 30
    endloop
  endfacet
  facet normal -0.24869 0.968583 0
    outer loop
      vertex -1.03006 3.17019 30
      vertex -0.624604 3.27429 15
      vertex -1.03006 3.17019 15
    endloop
  endfacet
  facet normal -0.684547 0.728969 0
    outer loop
      vertex -2.12475 2.56838 15
      vertex -2.4299 2.28182 23.0952
      vertex -2.12475 2.56838 23.0952
    endloop
  endfacet
  facet normal -0.684547 0.728969 0
    outer loop
      vertex -2.4299 2.28182 23.0952
      vertex -2.12475 2.56838 15
      vertex -2.4299 2.28182 15
    endloop
  endfacet
  facet normal -0.770513 0.637424 0
    outer loop
      vertex -2.69672 1.95928 15
      vertex -2.4299 2.28182 23.0952
      vertex -2.4299 2.28182 15
    endloop
  endfacet
  facet normal -0.770513 0.637424 0
    outer loop
      vertex -2.4299 2.28182 23.0952
      vertex -2.69672 1.95928 15
      vertex -2.69672 1.95928 23.0952
    endloop
  endfacet
  facet normal 0.998027 -0.0627903 0
    outer loop
      vertex 3.30705 -0.417777 23.0952
      vertex 3.33333 0 15
      vertex 3.33333 0 23.0952
    endloop
  endfacet
  facet normal 0.998027 -0.0627903 0
    outer loop
      vertex 3.33333 0 15
      vertex 3.30705 -0.417777 23.0952
      vertex 3.30705 -0.417777 15
    endloop
  endfacet
  facet normal 0.125333 -0.992115 0
    outer loop
      vertex 0.209302 -3.32676 15
      vertex 0.624604 -3.27429 30
      vertex 0.209302 -3.32676 30
    endloop
  endfacet
  facet normal 0.125333 -0.992115 0
    outer loop
      vertex 0.624604 -3.27429 30
      vertex 0.209302 -3.32676 15
      vertex 0.624604 -3.27429 15
    endloop
  endfacet
  facet normal -0.904827 -0.425779 0
    outer loop
      vertex -2.92102 -1.60585 15
      vertex -3.09925 -1.22708 23.0952
      vertex -3.09925 -1.22708 15
    endloop
  endfacet
  facet normal -0.904827 -0.425779 0
    outer loop
      vertex -3.09925 -1.22708 23.0952
      vertex -2.92102 -1.60585 15
      vertex -2.92102 -1.60585 23.0952
    endloop
  endfacet
  facet normal -0.684547 -0.728969 0
    outer loop
      vertex -2.26556 -2.43614 15
      vertex -2.4299 -2.28182 23.0952
      vertex -2.4299 -2.28182 15
    endloop
  endfacet
  facet normal -0.684547 -0.728969 5.26231e-10
    outer loop
      vertex -2.4299 -2.28182 23.0952
      vertex -2.26556 -2.43614 15
      vertex -2.12475 -2.56838 23.0952
    endloop
  endfacet
  facet normal -0.684547 -0.728969 -0
    outer loop
      vertex -2.12475 -2.56838 23.0952
      vertex -2.26556 -2.43614 15
      vertex -2.12475 -2.56838 15
    endloop
  endfacet
  facet normal 0.24869 -0.968583 0
    outer loop
      vertex 0.624604 -3.27429 15
      vertex 1.03006 -3.17019 30
      vertex 0.624604 -3.27429 30
    endloop
  endfacet
  facet normal 0.24869 -0.968583 0
    outer loop
      vertex 1.03006 -3.17019 30
      vertex 0.624604 -3.27429 15
      vertex 1.03006 -3.17019 15
    endloop
  endfacet
  facet normal 0.770513 -0.637424 0
    outer loop
      vertex 2.4299 -2.28182 23.0952
      vertex 2.69672 -1.95928 15
      vertex 2.69672 -1.95928 23.0952
    endloop
  endfacet
  facet normal 0.770513 -0.637424 0
    outer loop
      vertex 2.69672 -1.95928 15
      vertex 2.4299 -2.28182 23.0952
      vertex 2.4299 -2.28182 15
    endloop
  endfacet
  facet normal 0.982287 0.187381 0
    outer loop
      vertex 3.30705 0.417777 23.0952
      vertex 3.22861 0.828966 15
      vertex 3.22861 0.828966 23.0952
    endloop
  endfacet
  facet normal 0.982287 0.187381 0
    outer loop
      vertex 3.22861 0.828966 15
      vertex 3.30705 0.417777 23.0952
      vertex 3.30705 0.417777 15
    endloop
  endfacet
  facet normal 0 0 1
    outer loop
      vertex 1.41926 3.01609 30
      vertex 1.92857 2.71091 30
      vertex 1.78609 2.81443 30
    endloop
  endfacet
  facet normal 0 0 1
    outer loop
      vertex 1.03006 3.17019 30
      vertex 1.92857 2.71091 30
      vertex 1.41926 3.01609 30
    endloop
  endfacet
  facet normal 0 0 1
    outer loop
      vertex 1.92857 2.71091 30
      vertex 1.03006 3.17019 30
      vertex 1.92857 -2.71091 30
    endloop
  endfacet
  facet normal 0 0 1
    outer loop
      vertex 1.92857 -2.71091 30
      vertex 1.41926 -3.01609 30
      vertex 1.78609 -2.81443 30
    endloop
  endfacet
  facet normal 0 0 1
    outer loop
      vertex 1.03006 -3.17019 30
      vertex 1.92857 -2.71091 30
      vertex 1.03006 3.17019 30
    endloop
  endfacet
  facet normal 0 0 1
    outer loop
      vertex 1.92857 -2.71091 30
      vertex 1.03006 -3.17019 30
      vertex 1.41926 -3.01609 30
    endloop
  endfacet
  facet normal 0 0 1
    outer loop
      vertex 0.624604 3.27429 30
      vertex 1.03006 -3.17019 30
      vertex 1.03006 3.17019 30
    endloop
  endfacet
  facet normal 0 0 1
    outer loop
      vertex 0.624604 3.27429 30
      vertex 0.624604 -3.27429 30
      vertex 1.03006 -3.17019 30
    endloop
  endfacet
  facet normal 0 0 1
    outer loop
      vertex 0.209302 3.32676 30
      vertex 0.624604 -3.27429 30
      vertex 0.624604 3.27429 30
    endloop
  endfacet
  facet normal 0 0 1
    outer loop
      vertex 0.209302 3.32676 30
      vertex 0.209302 -3.32676 30
      vertex 0.624604 -3.27429 30
    endloop
  endfacet
  facet normal -0 0 1
    outer loop
      vertex -0.209302 3.32676 30
      vertex 0.209302 -3.32676 30
      vertex 0.209302 3.32676 30
    endloop
  endfacet
  facet normal 0 0 1
    outer loop
      vertex -0.209302 3.32676 30
      vertex -0.209302 -3.32676 30
      vertex 0.209302 -3.32676 30
    endloop
  endfacet
  facet normal -0 0 1
    outer loop
      vertex -0.624604 3.27429 30
      vertex -0.209302 -3.32676 30
      vertex -0.209302 3.32676 30
    endloop
  endfacet
  facet normal 0 0 1
    outer loop
      vertex -0.624604 3.27429 30
      vertex -0.624604 -3.27429 30
      vertex -0.209302 -3.32676 30
    endloop
  endfacet
  facet normal -0 0 1
    outer loop
      vertex -1.03006 3.17019 30
      vertex -0.624604 -3.27429 30
      vertex -0.624604 3.27429 30
    endloop
  endfacet
  facet normal 0 0 1
    outer loop
      vertex -1.03006 3.17019 30
      vertex -1.03006 -3.17019 30
      vertex -0.624604 -3.27429 30
    endloop
  endfacet
  facet normal 0 0 1
    outer loop
      vertex -1.92857 2.71091 30
      vertex -1.03006 3.17019 30
      vertex -1.41926 3.01609 30
    endloop
  endfacet
  facet normal 0 0 1
    outer loop
      vertex -1.03006 3.17019 30
      vertex -1.92857 2.71091 30
      vertex -1.03006 -3.17019 30
    endloop
  endfacet
  facet normal 0 0 1
    outer loop
      vertex -1.92857 2.71091 30
      vertex -1.41926 3.01609 30
      vertex -1.78609 2.81443 30
    endloop
  endfacet
  facet normal -0 0 1
    outer loop
      vertex -1.92857 -2.71091 30
      vertex -1.03006 -3.17019 30
      vertex -1.92857 2.71091 30
    endloop
  endfacet
  facet normal 0 0 1
    outer loop
      vertex -1.03006 -3.17019 30
      vertex -1.92857 -2.71091 30
      vertex -1.41926 -3.01609 30
    endloop
  endfacet
  facet normal 0 0 1
    outer loop
      vertex -1.41926 -3.01609 30
      vertex -1.92857 -2.71091 30
      vertex -1.78609 -2.81443 30
    endloop
  endfacet
  facet normal 0.982287 -0.187381 0
    outer loop
      vertex 3.22861 -0.828966 23.0952
      vertex 3.30705 -0.417777 15
      vertex 3.30705 -0.417777 23.0952
    endloop
  endfacet
  facet normal 0.982287 -0.187381 0
    outer loop
      vertex 3.30705 -0.417777 15
      vertex 3.22861 -0.828966 23.0952
      vertex 3.22861 -0.828966 15
    endloop
  endfacet
  facet normal -0.481754 -0.876307 0
    outer loop
      vertex -1.78609 -2.81443 15
      vertex -1.41926 -3.01609 30
      vertex -1.78609 -2.81443 30
    endloop
  endfacet
  facet normal -0.481754 -0.876307 -0
    outer loop
      vertex -1.41926 -3.01609 30
      vertex -1.78609 -2.81443 15
      vertex -1.41926 -3.01609 15
    endloop
  endfacet
  facet normal -0.125333 -0.992115 0
    outer loop
      vertex -0.624604 -3.27429 15
      vertex -0.209302 -3.32676 30
      vertex -0.624604 -3.27429 30
    endloop
  endfacet
  facet normal -0.125333 -0.992115 -0
    outer loop
      vertex -0.209302 -3.32676 30
      vertex -0.624604 -3.27429 15
      vertex -0.209302 -3.32676 15
    endloop
  endfacet
  facet normal -0.982287 -0.187381 0
    outer loop
      vertex -3.22861 -0.828966 15
      vertex -3.30705 -0.417777 23.0952
      vertex -3.30705 -0.417777 15
    endloop
  endfacet
  facet normal -0.982287 -0.187381 0
    outer loop
      vertex -3.30705 -0.417777 23.0952
      vertex -3.22861 -0.828966 15
      vertex -3.22861 -0.828966 23.0952
    endloop
  endfacet
  facet normal 0.481754 -0.876307 0
    outer loop
      vertex 1.41926 -3.01609 15
      vertex 1.78609 -2.81443 30
      vertex 1.41926 -3.01609 30
    endloop
  endfacet
  facet normal 0.481754 -0.876307 0
    outer loop
      vertex 1.78609 -2.81443 30
      vertex 1.41926 -3.01609 15
      vertex 1.78609 -2.81443 15
    endloop
  endfacet
  facet normal 0.368125 -0.929776 0
    outer loop
      vertex 1.03006 -3.17019 15
      vertex 1.41926 -3.01609 30
      vertex 1.03006 -3.17019 30
    endloop
  endfacet
  facet normal 0.368125 -0.929776 0
    outer loop
      vertex 1.41926 -3.01609 30
      vertex 1.03006 -3.17019 15
      vertex 1.41926 -3.01609 15
    endloop
  endfacet
  facet normal 0.684547 -0.728969 0
    outer loop
      vertex 2.12475 -2.56838 15
      vertex 2.4299 -2.28182 23.0952
      vertex 2.12475 -2.56838 23.0952
    endloop
  endfacet
  facet normal 0.684547 -0.728969 0
    outer loop
      vertex 2.4299 -2.28182 23.0952
      vertex 2.12475 -2.56838 15
      vertex 2.4299 -2.28182 15
    endloop
  endfacet
  facet normal 0.904827 -0.425779 0
    outer loop
      vertex 2.92102 -1.60585 23.0952
      vertex 3.09925 -1.22708 15
      vertex 3.09925 -1.22708 23.0952
    endloop
  endfacet
  facet normal 0.904827 -0.425779 0
    outer loop
      vertex 3.09925 -1.22708 15
      vertex 2.92102 -1.60585 23.0952
      vertex 2.92102 -1.60585 15
    endloop
  endfacet
  facet normal 0.844328 -0.535827 0
    outer loop
      vertex 2.69672 -1.95928 23.0952
      vertex 2.92102 -1.60585 15
      vertex 2.92102 -1.60585 23.0952
    endloop
  endfacet
  facet normal 0.844328 -0.535827 0
    outer loop
      vertex 2.92102 -1.60585 15
      vertex 2.69672 -1.95928 23.0952
      vertex 2.69672 -1.95928 15
    endloop
  endfacet
  facet normal -0.368125 -0.929776 0
    outer loop
      vertex -1.41926 -3.01609 15
      vertex -1.03006 -3.17019 30
      vertex -1.41926 -3.01609 30
    endloop
  endfacet
  facet normal -0.368125 -0.929776 -0
    outer loop
      vertex -1.03006 -3.17019 30
      vertex -1.41926 -3.01609 15
      vertex -1.03006 -3.17019 15
    endloop
  endfacet
  facet normal -0.951056 -0.309017 0
    outer loop
      vertex -3.09925 -1.22708 15
      vertex -3.22861 -0.828966 23.0952
      vertex -3.22861 -0.828966 15
    endloop
  endfacet
  facet normal -0.951056 -0.309017 0
    outer loop
      vertex -3.22861 -0.828966 23.0952
      vertex -3.09925 -1.22708 15
      vertex -3.09925 -1.22708 23.0952
    endloop
  endfacet
  facet normal -0.770513 -0.637424 0
    outer loop
      vertex -2.4299 -2.28182 15
      vertex -2.69672 -1.95928 23.0952
      vertex -2.69672 -1.95928 15
    endloop
  endfacet
  facet normal -0.770513 -0.637424 0
    outer loop
      vertex -2.69672 -1.95928 23.0952
      vertex -2.4299 -2.28182 15
      vertex -2.4299 -2.28182 23.0952
    endloop
  endfacet
  facet normal -0.844328 -0.535827 0
    outer loop
      vertex -2.69672 -1.95928 15
      vertex -2.92102 -1.60585 23.0952
      vertex -2.92102 -1.60585 15
    endloop
  endfacet
  facet normal -0.844328 -0.535827 0
    outer loop
      vertex -2.92102 -1.60585 23.0952
      vertex -2.69672 -1.95928 15
      vertex -2.69672 -1.95928 23.0952
    endloop
  endfacet
  facet normal -0.24869 -0.968583 0
    outer loop
      vertex -1.03006 -3.17019 15
      vertex -0.624604 -3.27429 30
      vertex -1.03006 -3.17019 30
    endloop
  endfacet
  facet normal -0.24869 -0.968583 -0
    outer loop
      vertex -0.624604 -3.27429 30
      vertex -1.03006 -3.17019 15
      vertex -0.624604 -3.27429 15
    endloop
  endfacet
  facet normal 0 -1 0
    outer loop
      vertex -0.209302 -3.32676 15
      vertex 0.209302 -3.32676 30
      vertex -0.209302 -3.32676 30
    endloop
  endfacet
  facet normal 0 -1 -0
    outer loop
      vertex 0.209302 -3.32676 30
      vertex -0.209302 -3.32676 15
      vertex 0.209302 -3.32676 15
    endloop
  endfacet
  facet normal 1 -0 0
    outer loop
      vertex 1.92857 -2.71091 30
      vertex 1.92857 2.71091 23.0952
      vertex 1.92857 2.71091 30
    endloop
  endfacet
  facet normal 1 0 0
    outer loop
      vertex 1.92857 2.71091 23.0952
      vertex 1.92857 -2.71091 30
      vertex 1.92857 -2.71091 23.0952
    endloop
  endfacet
  facet normal 0 0 1
    outer loop
      vertex 3.30705 0.417777 23.0952
      vertex 3.30705 -0.417777 23.0952
      vertex 3.33333 0 23.0952
    endloop
  endfacet
  facet normal 0 0 1
    outer loop
      vertex 3.22861 0.828966 23.0952
      vertex 3.30705 -0.417777 23.0952
      vertex 3.30705 0.417777 23.0952
    endloop
  endfacet
  facet normal 0 0 1
    outer loop
      vertex 3.22861 0.828966 23.0952
      vertex 3.22861 -0.828966 23.0952
      vertex 3.30705 -0.417777 23.0952
    endloop
  endfacet
  facet normal 0 0 1
    outer loop
      vertex 3.09925 1.22708 23.0952
      vertex 3.22861 -0.828966 23.0952
      vertex 3.22861 0.828966 23.0952
    endloop
  endfacet
  facet normal 0 0 1
    outer loop
      vertex 3.09925 1.22708 23.0952
      vertex 3.09925 -1.22708 23.0952
      vertex 3.22861 -0.828966 23.0952
    endloop
  endfacet
  facet normal 0 0 1
    outer loop
      vertex 2.92102 1.60585 23.0952
      vertex 3.09925 -1.22708 23.0952
      vertex 3.09925 1.22708 23.0952
    endloop
  endfacet
  facet normal 0 0 1
    outer loop
      vertex 2.92102 1.60585 23.0952
      vertex 2.92102 -1.60585 23.0952
      vertex 3.09925 -1.22708 23.0952
    endloop
  endfacet
  facet normal 0 0 1
    outer loop
      vertex 2.69672 1.95928 23.0952
      vertex 2.92102 -1.60585 23.0952
      vertex 2.92102 1.60585 23.0952
    endloop
  endfacet
  facet normal 0 0 1
    outer loop
      vertex 2.69672 1.95928 23.0952
      vertex 2.69672 -1.95928 23.0952
      vertex 2.92102 -1.60585 23.0952
    endloop
  endfacet
  facet normal 0 0 1
    outer loop
      vertex 2.4299 2.28182 23.0952
      vertex 2.69672 -1.95928 23.0952
      vertex 2.69672 1.95928 23.0952
    endloop
  endfacet
  facet normal 0 0 1
    outer loop
      vertex 2.4299 2.28182 23.0952
      vertex 2.4299 -2.28182 23.0952
      vertex 2.69672 -1.95928 23.0952
    endloop
  endfacet
  facet normal 0 0 1
    outer loop
      vertex 1.92857 2.71091 23.0952
      vertex 2.4299 2.28182 23.0952
      vertex 2.12475 2.56838 23.0952
    endloop
  endfacet
  facet normal 0 0 1
    outer loop
      vertex 2.4299 2.28182 23.0952
      vertex 1.92857 2.71091 23.0952
      vertex 2.4299 -2.28182 23.0952
    endloop
  endfacet
  facet normal 0 0 1
    outer loop
      vertex 1.92857 -2.71091 23.0952
      vertex 2.4299 -2.28182 23.0952
      vertex 1.92857 2.71091 23.0952
    endloop
  endfacet
  facet normal 0 0 1
    outer loop
      vertex 2.4299 -2.28182 23.0952
      vertex 1.92857 -2.71091 23.0952
      vertex 2.12475 -2.56838 23.0952
    endloop
  endfacet
  facet normal -1 0 0
    outer loop
      vertex -1.92857 -2.71091 23.0952
      vertex -1.92857 2.71091 30
      vertex -1.92857 2.71091 23.0952
    endloop
  endfacet
  facet normal -1 -0 0
    outer loop
      vertex -1.92857 2.71091 30
      vertex -1.92857 -2.71091 23.0952
      vertex -1.92857 -2.71091 30
    endloop
  endfacet
  facet normal 0 0 1
    outer loop
      vertex -2.4299 2.28182 23.0952
      vertex -1.92857 2.71091 23.0952
      vertex -2.12475 2.56838 23.0952
    endloop
  endfacet
  facet normal 0 0 1
    outer loop
      vertex -1.92857 2.71091 23.0952
      vertex -2.4299 2.28182 23.0952
      vertex -1.92857 -2.71091 23.0952
    endloop
  endfacet
  facet normal -0 0 1
    outer loop
      vertex -2.4299 -2.28182 23.0952
      vertex -1.92857 -2.71091 23.0952
      vertex -2.4299 2.28182 23.0952
    endloop
  endfacet
  facet normal 0 0 1
    outer loop
      vertex -1.92857 -2.71091 23.0952
      vertex -2.4299 -2.28182 23.0952
      vertex -2.12475 -2.56838 23.0952
    endloop
  endfacet
  facet normal -0 0 1
    outer loop
      vertex -2.69672 1.95928 23.0952
      vertex -2.4299 -2.28182 23.0952
      vertex -2.4299 2.28182 23.0952
    endloop
  endfacet
  facet normal 0 0 1
    outer loop
      vertex -2.69672 1.95928 23.0952
      vertex -2.69672 -1.95928 23.0952
      vertex -2.4299 -2.28182 23.0952
    endloop
  endfacet
  facet normal -0 0 1
    outer loop
      vertex -2.92102 1.60585 23.0952
      vertex -2.69672 -1.95928 23.0952
      vertex -2.69672 1.95928 23.0952
    endloop
  endfacet
  facet normal 0 0 1
    outer loop
      vertex -2.92102 1.60585 23.0952
      vertex -2.92102 -1.60585 23.0952
      vertex -2.69672 -1.95928 23.0952
    endloop
  endfacet
  facet normal -0 0 1
    outer loop
      vertex -3.09925 1.22708 23.0952
      vertex -2.92102 -1.60585 23.0952
      vertex -2.92102 1.60585 23.0952
    endloop
  endfacet
  facet normal 0 0 1
    outer loop
      vertex -3.09925 1.22708 23.0952
      vertex -3.09925 -1.22708 23.0952
      vertex -2.92102 -1.60585 23.0952
    endloop
  endfacet
  facet normal -0 0 1
    outer loop
      vertex -3.22861 0.828966 23.0952
      vertex -3.09925 -1.22708 23.0952
      vertex -3.09925 1.22708 23.0952
    endloop
  endfacet
  facet normal 0 0 1
    outer loop
      vertex -3.22861 0.828966 23.0952
      vertex -3.22861 -0.828966 23.0952
      vertex -3.09925 -1.22708 23.0952
    endloop
  endfacet
  facet normal -0 0 1
    outer loop
      vertex -3.30705 0.417777 23.0952
      vertex -3.22861 -0.828966 23.0952
      vertex -3.22861 0.828966 23.0952
    endloop
  endfacet
  facet normal 0 0 1
    outer loop
      vertex -3.30705 0.417777 23.0952
      vertex -3.30705 -0.417777 23.0952
      vertex -3.22861 -0.828966 23.0952
    endloop
  endfacet
  facet normal 0 -0 1
    outer loop
      vertex -3.30705 -0.417777 23.0952
      vertex -3.30705 0.417777 23.0952
      vertex -3.33333 4.08216e-16 23.0952
    endloop
  endfacet
endsolid OpenSCAD_Model
