solid OpenSCAD_Model
  facet normal 0 -1 0
    outer loop
      vertex -0.975 2.475 0
      vertex 0.975 2.475 2
      vertex -0.975 2.475 2
    endloop
  endfacet
  facet normal 0 -1 -0
    outer loop
      vertex 0.975 2.475 2
      vertex -0.975 2.475 0
      vertex 0.975 2.475 0
    endloop
  endfacet
  facet normal -0 0 1
    outer loop
      vertex -2.475 -0.975 2
      vertex -0.975 -2.475 2
      vertex -0.975 -0.975 2
    endloop
  endfacet
  facet normal 0 0 1
    outer loop
      vertex -8.02957 -8.91774 2
      vertex -0.975 -2.475 2
      vertex -2.475 -0.975 2
    endloop
  endfacet
  facet normal 0 0 1
    outer loop
      vertex -0.975 -2.475 2
      vertex -3.7082 -11.4127 2
      vertex -1.25434 -11.9343 2
    endloop
  endfacet
  facet normal 0 0 1
    outer loop
      vertex -0.975 2.475 2
      vertex -8.02957 8.91774 2
      vertex -2.475 0.975 2
    endloop
  endfacet
  facet normal -0 0 1
    outer loop
      vertex -9.7082 7.05342 2
      vertex -2.475 0.975 2
      vertex -8.02957 8.91774 2
    endloop
  endfacet
  facet normal 0 0 1
    outer loop
      vertex -0.975 -2.475 2
      vertex -6 -10.3923 2
      vertex -3.7082 -11.4127 2
    endloop
  endfacet
  facet normal -0 0 1
    outer loop
      vertex -10.9625 4.88084 2
      vertex -2.475 0.975 2
      vertex -9.7082 7.05342 2
    endloop
  endfacet
  facet normal 0 0 1
    outer loop
      vertex -0.975 -2.475 2
      vertex -8.02957 -8.91774 2
      vertex -6 -10.3923 2
    endloop
  endfacet
  facet normal -0 0 1
    outer loop
      vertex -11.7378 2.49494 2
      vertex -2.475 0.975 2
      vertex -10.9625 4.88084 2
    endloop
  endfacet
  facet normal 0 0 1
    outer loop
      vertex -2.475 -0.975 2
      vertex -9.7082 -7.05342 2
      vertex -8.02957 -8.91774 2
    endloop
  endfacet
  facet normal 0 0 1
    outer loop
      vertex -12 6.79865e-15 2
      vertex -2.475 0.975 2
      vertex -11.7378 2.49494 2
    endloop
  endfacet
  facet normal 0 0 1
    outer loop
      vertex -2.475 -0.975 2
      vertex -10.9625 -4.88084 2
      vertex -9.7082 -7.05342 2
    endloop
  endfacet
  facet normal 0 0 1
    outer loop
      vertex -2.475 0.975 2
      vertex -12 6.79865e-15 2
      vertex -2.475 -0.975 2
    endloop
  endfacet
  facet normal 0 0 1
    outer loop
      vertex -2.475 -0.975 2
      vertex -11.7378 -2.49494 2
      vertex -10.9625 -4.88084 2
    endloop
  endfacet
  facet normal 0 0 1
    outer loop
      vertex -2.475 -0.975 2
      vertex -12 6.79865e-15 2
      vertex -11.7378 -2.49494 2
    endloop
  endfacet
  facet normal 0 0 1
    outer loop
      vertex 1.25434 11.9343 2
      vertex -0.975 2.475 2
      vertex 0.975 2.475 2
    endloop
  endfacet
  facet normal -0 0 1
    outer loop
      vertex -1.25434 11.9343 2
      vertex -0.975 2.475 2
      vertex 1.25434 11.9343 2
    endloop
  endfacet
  facet normal -0 0 1
    outer loop
      vertex -3.7082 11.4127 2
      vertex -0.975 2.475 2
      vertex -1.25434 11.9343 2
    endloop
  endfacet
  facet normal -0 0 1
    outer loop
      vertex -6 10.3923 2
      vertex -0.975 2.475 2
      vertex -3.7082 11.4127 2
    endloop
  endfacet
  facet normal -0 0 1
    outer loop
      vertex -8.02957 8.91774 2
      vertex -0.975 2.475 2
      vertex -6 10.3923 2
    endloop
  endfacet
  facet normal 0 0 1
    outer loop
      vertex -0.975 2.475 2
      vertex -2.475 0.975 2
      vertex -0.975 0.975 2
    endloop
  endfacet
  facet normal 0 0 1
    outer loop
      vertex 8.02957 -8.91774 2
      vertex 0.975 -2.475 2
      vertex 6 -10.3923 2
    endloop
  endfacet
  facet normal 0 0 1
    outer loop
      vertex 6 -10.3923 2
      vertex 0.975 -2.475 2
      vertex 3.7082 -11.4127 2
    endloop
  endfacet
  facet normal 0 0 1
    outer loop
      vertex 0.975 -2.475 2
      vertex 2.475 -0.975 2
      vertex 0.975 -0.975 2
    endloop
  endfacet
  facet normal 0 0 1
    outer loop
      vertex 3.7082 -11.4127 2
      vertex 0.975 -2.475 2
      vertex 1.25434 -11.9343 2
    endloop
  endfacet
  facet normal -0 0 1
    outer loop
      vertex -0.975 -2.475 2
      vertex 1.25434 -11.9343 2
      vertex 0.975 -2.475 2
    endloop
  endfacet
  facet normal 0 0 1
    outer loop
      vertex 1.25434 -11.9343 2
      vertex -0.975 -2.475 2
      vertex -1.25434 -11.9343 2
    endloop
  endfacet
  facet normal 0 0 1
    outer loop
      vertex 8.5 0 2
      vertex 12 0 2
      vertex 11.7378 2.49494 2
    endloop
  endfacet
  facet normal 0 0 1
    outer loop
      vertex 7.46353 1.42658 2
      vertex 11.7378 2.49494 2
      vertex 10.9625 4.88084 2
    endloop
  endfacet
  facet normal 0 0 1
    outer loop
      vertex 12 0 2
      vertex 8.5 0 2
      vertex 11.7378 -2.49494 2
    endloop
  endfacet
  facet normal 0 0 1
    outer loop
      vertex 7.46353 1.42658 2
      vertex 10.9625 4.88084 2
      vertex 9.7082 7.05342 2
    endloop
  endfacet
  facet normal -0 0 1
    outer loop
      vertex 7.46353 -1.42658 2
      vertex 11.7378 -2.49494 2
      vertex 8.5 0 2
    endloop
  endfacet
  facet normal 0 0 1
    outer loop
      vertex 11.7378 -2.49494 2
      vertex 7.46353 -1.42658 2
      vertex 10.9625 -4.88084 2
    endloop
  endfacet
  facet normal 0 0 1
    outer loop
      vertex 7.46353 1.42658 2
      vertex 9.7082 7.05342 2
      vertex 8.02957 8.91774 2
    endloop
  endfacet
  facet normal 0 0 1
    outer loop
      vertex 11.7378 2.49494 2
      vertex 7.46353 1.42658 2
      vertex 8.5 0 2
    endloop
  endfacet
  facet normal 0 0 1
    outer loop
      vertex 0.975 2.475 2
      vertex 8.02957 8.91774 2
      vertex 6 10.3923 2
    endloop
  endfacet
  facet normal 0 0 1
    outer loop
      vertex 8.02957 8.91774 2
      vertex 5.78647 0.881678 2
      vertex 7.46353 1.42658 2
    endloop
  endfacet
  facet normal 0 0 1
    outer loop
      vertex 8.02957 8.91774 2
      vertex 0.975 2.475 2
      vertex 5.78647 0.881678 2
    endloop
  endfacet
  facet normal 0 0 1
    outer loop
      vertex 0.975 2.475 2
      vertex 6 10.3923 2
      vertex 3.7082 11.4127 2
    endloop
  endfacet
  facet normal 0 0 1
    outer loop
      vertex 10.9625 -4.88084 2
      vertex 7.46353 -1.42658 2
      vertex 9.7082 -7.05342 2
    endloop
  endfacet
  facet normal 0 0 1
    outer loop
      vertex 9.7082 -7.05342 2
      vertex 7.46353 -1.42658 2
      vertex 8.02957 -8.91774 2
    endloop
  endfacet
  facet normal 0 0 1
    outer loop
      vertex 5.78647 -0.881678 2
      vertex 8.02957 -8.91774 2
      vertex 7.46353 -1.42658 2
    endloop
  endfacet
  facet normal 0 0 1
    outer loop
      vertex 0.975 -2.475 2
      vertex 5.78647 -0.881678 2
      vertex 2.475 -0.975 2
    endloop
  endfacet
  facet normal 0 0 1
    outer loop
      vertex 5.78647 0.881678 2
      vertex 2.475 0.975 2
      vertex 5.78647 -0.881678 2
    endloop
  endfacet
  facet normal 0 0 1
    outer loop
      vertex 2.475 -0.975 2
      vertex 5.78647 -0.881678 2
      vertex 2.475 0.975 2
    endloop
  endfacet
  facet normal 0 0 1
    outer loop
      vertex 5.78647 -0.881678 2
      vertex 0.975 -2.475 2
      vertex 8.02957 -8.91774 2
    endloop
  endfacet
  facet normal 0 0 1
    outer loop
      vertex 0.975 2.475 2
      vertex 3.7082 11.4127 2
      vertex 1.25434 11.9343 2
    endloop
  endfacet
  facet normal 0 0 1
    outer loop
      vertex 5.78647 0.881678 2
      vertex 0.975 2.475 2
      vertex 2.475 0.975 2
    endloop
  endfacet
  facet normal 0 0 1
    outer loop
      vertex 2.475 0.975 2
      vertex 0.975 2.475 2
      vertex 0.975 0.975 2
    endloop
  endfacet
  facet normal 1 -0 0
    outer loop
      vertex -0.975 0.975 2
      vertex -0.975 2.475 0
      vertex -0.975 2.475 2
    endloop
  endfacet
  facet normal 1 0 0
    outer loop
      vertex -0.975 2.475 0
      vertex -0.975 0.975 2
      vertex -0.975 0.975 0
    endloop
  endfacet
  facet normal 1 -0 0
    outer loop
      vertex -0.975 -2.475 2
      vertex -0.975 -0.975 0
      vertex -0.975 -0.975 2
    endloop
  endfacet
  facet normal 1 0 0
    outer loop
      vertex -0.975 -0.975 0
      vertex -0.975 -2.475 2
      vertex -0.975 -2.475 0
    endloop
  endfacet
  facet normal 0 1 -0
    outer loop
      vertex 0.975 -2.475 0
      vertex -0.975 -2.475 2
      vertex 0.975 -2.475 2
    endloop
  endfacet
  facet normal 0 1 0
    outer loop
      vertex -0.975 -2.475 2
      vertex 0.975 -2.475 0
      vertex -0.975 -2.475 0
    endloop
  endfacet
  facet normal 0 0 -1
    outer loop
      vertex -2.475 0.975 0
      vertex -0.975 2.475 0
      vertex -0.975 0.975 0
    endloop
  endfacet
  facet normal 0 0 -1
    outer loop
      vertex -8.02957 8.91774 0
      vertex -0.975 2.475 0
      vertex -2.475 0.975 0
    endloop
  endfacet
  facet normal 0 0 -1
    outer loop
      vertex -0.975 2.475 0
      vertex -3.7082 11.4127 0
      vertex -1.25434 11.9343 0
    endloop
  endfacet
  facet normal -0 0 -1
    outer loop
      vertex -0.975 -2.475 0
      vertex -8.02957 -8.91774 0
      vertex -2.475 -0.975 0
    endloop
  endfacet
  facet normal 0 0 -1
    outer loop
      vertex -9.7082 -7.05342 0
      vertex -2.475 -0.975 0
      vertex -8.02957 -8.91774 0
    endloop
  endfacet
  facet normal 0 0 -1
    outer loop
      vertex -0.975 2.475 0
      vertex -6 10.3923 0
      vertex -3.7082 11.4127 0
    endloop
  endfacet
  facet normal 0 0 -1
    outer loop
      vertex -10.9625 -4.88084 0
      vertex -2.475 -0.975 0
      vertex -9.7082 -7.05342 0
    endloop
  endfacet
  facet normal 0 0 -1
    outer loop
      vertex -0.975 2.475 0
      vertex -8.02957 8.91774 0
      vertex -6 10.3923 0
    endloop
  endfacet
  facet normal 0 0 -1
    outer loop
      vertex -11.7378 -2.49494 0
      vertex -2.475 -0.975 0
      vertex -10.9625 -4.88084 0
    endloop
  endfacet
  facet normal 0 0 -1
    outer loop
      vertex -2.475 0.975 0
      vertex -9.7082 7.05342 0
      vertex -8.02957 8.91774 0
    endloop
  endfacet
  facet normal 0 0 -1
    outer loop
      vertex -12 6.79865e-15 0
      vertex -2.475 -0.975 0
      vertex -11.7378 -2.49494 0
    endloop
  endfacet
  facet normal 0 0 -1
    outer loop
      vertex -2.475 0.975 0
      vertex -10.9625 4.88084 0
      vertex -9.7082 7.05342 0
    endloop
  endfacet
  facet normal 0 0 -1
    outer loop
      vertex -2.475 -0.975 0
      vertex -12 6.79865e-15 0
      vertex -2.475 0.975 0
    endloop
  endfacet
  facet normal 0 0 -1
    outer loop
      vertex -2.475 0.975 0
      vertex -11.7378 2.49494 0
      vertex -10.9625 4.88084 0
    endloop
  endfacet
  facet normal -0 0 -1
    outer loop
      vertex -2.475 0.975 0
      vertex -12 6.79865e-15 0
      vertex -11.7378 2.49494 0
    endloop
  endfacet
  facet normal 0 0 -1
    outer loop
      vertex 1.25434 -11.9343 0
      vertex -0.975 -2.475 0
      vertex 0.975 -2.475 0
    endloop
  endfacet
  facet normal 0 0 -1
    outer loop
      vertex -1.25434 -11.9343 0
      vertex -0.975 -2.475 0
      vertex 1.25434 -11.9343 0
    endloop
  endfacet
  facet normal 0 0 -1
    outer loop
      vertex -3.7082 -11.4127 0
      vertex -0.975 -2.475 0
      vertex -1.25434 -11.9343 0
    endloop
  endfacet
  facet normal 0 0 -1
    outer loop
      vertex -6 -10.3923 0
      vertex -0.975 -2.475 0
      vertex -3.7082 -11.4127 0
    endloop
  endfacet
  facet normal 0 0 -1
    outer loop
      vertex -8.02957 -8.91774 0
      vertex -0.975 -2.475 0
      vertex -6 -10.3923 0
    endloop
  endfacet
  facet normal 0 0 -1
    outer loop
      vertex -0.975 -2.475 0
      vertex -2.475 -0.975 0
      vertex -0.975 -0.975 0
    endloop
  endfacet
  facet normal -0 0 -1
    outer loop
      vertex 8.02957 8.91774 0
      vertex 0.975 2.475 0
      vertex 6 10.3923 0
    endloop
  endfacet
  facet normal -0 0 -1
    outer loop
      vertex 6 10.3923 0
      vertex 0.975 2.475 0
      vertex 3.7082 11.4127 0
    endloop
  endfacet
  facet normal 0 0 -1
    outer loop
      vertex 0.975 2.475 0
      vertex 2.475 0.975 0
      vertex 0.975 0.975 0
    endloop
  endfacet
  facet normal -0 0 -1
    outer loop
      vertex 3.7082 11.4127 0
      vertex 0.975 2.475 0
      vertex 1.25434 11.9343 0
    endloop
  endfacet
  facet normal 0 0 -1
    outer loop
      vertex -0.975 2.475 0
      vertex 1.25434 11.9343 0
      vertex 0.975 2.475 0
    endloop
  endfacet
  facet normal -0 0 -1
    outer loop
      vertex 1.25434 11.9343 0
      vertex -0.975 2.475 0
      vertex -1.25434 11.9343 0
    endloop
  endfacet
  facet normal 0 0 -1
    outer loop
      vertex 8.5 0 0
      vertex 12 0 0
      vertex 11.7378 -2.49494 0
    endloop
  endfacet
  facet normal 0 0 -1
    outer loop
      vertex 7.46353 -1.42658 0
      vertex 11.7378 -2.49494 0
      vertex 10.9625 -4.88084 0
    endloop
  endfacet
  facet normal 0 0 -1
    outer loop
      vertex 12 0 0
      vertex 8.5 0 0
      vertex 11.7378 2.49494 0
    endloop
  endfacet
  facet normal 0 0 -1
    outer loop
      vertex 7.46353 -1.42658 0
      vertex 10.9625 -4.88084 0
      vertex 9.7082 -7.05342 0
    endloop
  endfacet
  facet normal 0 0 -1
    outer loop
      vertex 7.46353 1.42658 0
      vertex 11.7378 2.49494 0
      vertex 8.5 0 0
    endloop
  endfacet
  facet normal -0 0 -1
    outer loop
      vertex 11.7378 2.49494 0
      vertex 7.46353 1.42658 0
      vertex 10.9625 4.88084 0
    endloop
  endfacet
  facet normal 0 0 -1
    outer loop
      vertex 7.46353 -1.42658 0
      vertex 9.7082 -7.05342 0
      vertex 8.02957 -8.91774 0
    endloop
  endfacet
  facet normal 0 0 -1
    outer loop
      vertex 11.7378 -2.49494 0
      vertex 7.46353 -1.42658 0
      vertex 8.5 0 0
    endloop
  endfacet
  facet normal 0 0 -1
    outer loop
      vertex 0.975 -2.475 0
      vertex 8.02957 -8.91774 0
      vertex 6 -10.3923 0
    endloop
  endfacet
  facet normal 0 0 -1
    outer loop
      vertex 8.02957 -8.91774 0
      vertex 5.78647 -0.881678 0
      vertex 7.46353 -1.42658 0
    endloop
  endfacet
  facet normal 0 0 -1
    outer loop
      vertex 8.02957 -8.91774 0
      vertex 0.975 -2.475 0
      vertex 5.78647 -0.881678 0
    endloop
  endfacet
  facet normal 0 0 -1
    outer loop
      vertex 0.975 -2.475 0
      vertex 6 -10.3923 0
      vertex 3.7082 -11.4127 0
    endloop
  endfacet
  facet normal -0 0 -1
    outer loop
      vertex 10.9625 4.88084 0
      vertex 7.46353 1.42658 0
      vertex 9.7082 7.05342 0
    endloop
  endfacet
  facet normal -0 0 -1
    outer loop
      vertex 9.7082 7.05342 0
      vertex 7.46353 1.42658 0
      vertex 8.02957 8.91774 0
    endloop
  endfacet
  facet normal 0 0 -1
    outer loop
      vertex 5.78647 0.881678 0
      vertex 8.02957 8.91774 0
      vertex 7.46353 1.42658 0
    endloop
  endfacet
  facet normal 0 0 -1
    outer loop
      vertex 0.975 2.475 0
      vertex 5.78647 0.881678 0
      vertex 2.475 0.975 0
    endloop
  endfacet
  facet normal -0 0 -1
    outer loop
      vertex 5.78647 -0.881678 0
      vertex 2.475 -0.975 0
      vertex 5.78647 0.881678 0
    endloop
  endfacet
  facet normal 0 0 -1
    outer loop
      vertex 2.475 0.975 0
      vertex 5.78647 0.881678 0
      vertex 2.475 -0.975 0
    endloop
  endfacet
  facet normal 0 0 -1
    outer loop
      vertex 5.78647 0.881678 0
      vertex 0.975 2.475 0
      vertex 8.02957 8.91774 0
    endloop
  endfacet
  facet normal 0 0 -1
    outer loop
      vertex 0.975 -2.475 0
      vertex 3.7082 -11.4127 0
      vertex 1.25434 -11.9343 0
    endloop
  endfacet
  facet normal 0 0 -1
    outer loop
      vertex 5.78647 -0.881678 0
      vertex 0.975 -2.475 0
      vertex 2.475 -0.975 0
    endloop
  endfacet
  facet normal -0 0 -1
    outer loop
      vertex 2.475 -0.975 0
      vertex 0.975 -2.475 0
      vertex 0.975 -0.975 0
    endloop
  endfacet
  facet normal -1 0 0
    outer loop
      vertex 0.975 -2.475 0
      vertex 0.975 -0.975 2
      vertex 0.975 -0.975 0
    endloop
  endfacet
  facet normal -1 -0 0
    outer loop
      vertex 0.975 -0.975 2
      vertex 0.975 -2.475 0
      vertex 0.975 -2.475 2
    endloop
  endfacet
  facet normal -1 0 0
    outer loop
      vertex 0.975 0.975 0
      vertex 0.975 2.475 2
      vertex 0.975 2.475 0
    endloop
  endfacet
  facet normal -1 -0 0
    outer loop
      vertex 0.975 2.475 2
      vertex 0.975 0.975 0
      vertex 0.975 0.975 2
    endloop
  endfacet
  facet normal 1 -0 0
    outer loop
      vertex -2.475 -0.975 2
      vertex -2.475 0.975 0
      vertex -2.475 0.975 2
    endloop
  endfacet
  facet normal 1 0 0
    outer loop
      vertex -2.475 0.975 0
      vertex -2.475 -0.975 2
      vertex -2.475 -0.975 0
    endloop
  endfacet
  facet normal -1 0 0
    outer loop
      vertex 2.475 -0.975 0
      vertex 2.475 0.975 2
      vertex 2.475 0.975 0
    endloop
  endfacet
  facet normal -1 -0 0
    outer loop
      vertex 2.475 0.975 2
      vertex 2.475 -0.975 0
      vertex 2.475 -0.975 2
    endloop
  endfacet
  facet normal 0 1 -0
    outer loop
      vertex -0.975 -0.975 0
      vertex -2.475 -0.975 2
      vertex -0.975 -0.975 2
    endloop
  endfacet
  facet normal 0 1 0
    outer loop
      vertex -2.475 -0.975 2
      vertex -0.975 -0.975 0
      vertex -2.475 -0.975 0
    endloop
  endfacet
  facet normal 0 1 -0
    outer loop
      vertex 2.475 -0.975 0
      vertex 0.975 -0.975 2
      vertex 2.475 -0.975 2
    endloop
  endfacet
  facet normal 0 1 0
    outer loop
      vertex 0.975 -0.975 2
      vertex 2.475 -0.975 0
      vertex 0.975 -0.975 0
    endloop
  endfacet
  facet normal 0 -1 0
    outer loop
      vertex 0.975 0.975 0
      vertex 2.475 0.975 2
      vertex 0.975 0.975 2
    endloop
  endfacet
  facet normal 0 -1 -0
    outer loop
      vertex 2.475 0.975 2
      vertex 0.975 0.975 0
      vertex 2.475 0.975 0
    endloop
  endfacet
  facet normal 0 -1 0
    outer loop
      vertex -2.475 0.975 0
      vertex -0.975 0.975 2
      vertex -2.475 0.975 2
    endloop
  endfacet
  facet normal 0 -1 -0
    outer loop
      vertex -0.975 0.975 2
      vertex -2.475 0.975 0
      vertex -0.975 0.975 0
    endloop
  endfacet
  facet normal 0.994522 0.104529 0
    outer loop
      vertex 12 0 2
      vertex 11.7378 2.49494 0
      vertex 11.7378 2.49494 2
    endloop
  endfacet
  facet normal 0.994522 0.104529 0
    outer loop
      vertex 11.7378 2.49494 0
      vertex 12 0 2
      vertex 12 0 0
    endloop
  endfacet
  facet normal -0.207912 0.978148 0
    outer loop
      vertex -1.25434 11.9343 0
      vertex -3.7082 11.4127 2
      vertex -1.25434 11.9343 2
    endloop
  endfacet
  facet normal -0.207912 0.978148 0
    outer loop
      vertex -3.7082 11.4127 2
      vertex -1.25434 11.9343 0
      vertex -3.7082 11.4127 0
    endloop
  endfacet
  facet normal 0.406737 -0.913545 0
    outer loop
      vertex 3.7082 -11.4127 0
      vertex 6 -10.3923 2
      vertex 3.7082 -11.4127 2
    endloop
  endfacet
  facet normal 0.406737 -0.913545 0
    outer loop
      vertex 6 -10.3923 2
      vertex 3.7082 -11.4127 0
      vertex 6 -10.3923 0
    endloop
  endfacet
  facet normal 0.587785 0.809017 -0
    outer loop
      vertex 8.02957 8.91774 0
      vertex 6 10.3923 2
      vertex 8.02957 8.91774 2
    endloop
  endfacet
  facet normal 0.587785 0.809017 0
    outer loop
      vertex 6 10.3923 2
      vertex 8.02957 8.91774 0
      vertex 6 10.3923 0
    endloop
  endfacet
  facet normal -0.743145 0.669131 0
    outer loop
      vertex -9.7082 7.05342 0
      vertex -8.02957 8.91774 2
      vertex -8.02957 8.91774 0
    endloop
  endfacet
  facet normal -0.743145 0.669131 0
    outer loop
      vertex -8.02957 8.91774 2
      vertex -9.7082 7.05342 0
      vertex -9.7082 7.05342 2
    endloop
  endfacet
  facet normal -0.587785 0.809017 0
    outer loop
      vertex -6 10.3923 0
      vertex -8.02957 8.91774 2
      vertex -6 10.3923 2
    endloop
  endfacet
  facet normal -0.587785 0.809017 0
    outer loop
      vertex -8.02957 8.91774 2
      vertex -6 10.3923 0
      vertex -8.02957 8.91774 0
    endloop
  endfacet
  facet normal 0.866025 -0.5 0
    outer loop
      vertex 9.7082 -7.05342 2
      vertex 10.9625 -4.88084 0
      vertex 10.9625 -4.88084 2
    endloop
  endfacet
  facet normal 0.866025 -0.5 0
    outer loop
      vertex 10.9625 -4.88084 0
      vertex 9.7082 -7.05342 2
      vertex 9.7082 -7.05342 0
    endloop
  endfacet
  facet normal 0.866025 0.5 0
    outer loop
      vertex 10.9625 4.88084 2
      vertex 9.7082 7.05342 0
      vertex 9.7082 7.05342 2
    endloop
  endfacet
  facet normal 0.866025 0.5 0
    outer loop
      vertex 9.7082 7.05342 0
      vertex 10.9625 4.88084 2
      vertex 10.9625 4.88084 0
    endloop
  endfacet
  facet normal 0.951057 0.309017 0
    outer loop
      vertex 11.7378 2.49494 2
      vertex 10.9625 4.88084 0
      vertex 10.9625 4.88084 2
    endloop
  endfacet
  facet normal 0.951057 0.309017 0
    outer loop
      vertex 10.9625 4.88084 0
      vertex 11.7378 2.49494 2
      vertex 11.7378 2.49494 0
    endloop
  endfacet
  facet normal 0.743145 0.669131 0
    outer loop
      vertex 9.7082 7.05342 2
      vertex 8.02957 8.91774 0
      vertex 8.02957 8.91774 2
    endloop
  endfacet
  facet normal 0.743145 0.669131 0
    outer loop
      vertex 8.02957 8.91774 0
      vertex 9.7082 7.05342 2
      vertex 9.7082 7.05342 0
    endloop
  endfacet
  facet normal 0.207912 0.978148 -0
    outer loop
      vertex 3.7082 11.4127 0
      vertex 1.25434 11.9343 2
      vertex 3.7082 11.4127 2
    endloop
  endfacet
  facet normal 0.207912 0.978148 0
    outer loop
      vertex 1.25434 11.9343 2
      vertex 3.7082 11.4127 0
      vertex 1.25434 11.9343 0
    endloop
  endfacet
  facet normal 0 1 -0
    outer loop
      vertex 1.25434 11.9343 0
      vertex -1.25434 11.9343 2
      vertex 1.25434 11.9343 2
    endloop
  endfacet
  facet normal 0 1 0
    outer loop
      vertex -1.25434 11.9343 2
      vertex 1.25434 11.9343 0
      vertex -1.25434 11.9343 0
    endloop
  endfacet
  facet normal 0.406737 0.913545 -0
    outer loop
      vertex 6 10.3923 0
      vertex 3.7082 11.4127 2
      vertex 6 10.3923 2
    endloop
  endfacet
  facet normal 0.406737 0.913545 0
    outer loop
      vertex 3.7082 11.4127 2
      vertex 6 10.3923 0
      vertex 3.7082 11.4127 0
    endloop
  endfacet
  facet normal -0.951057 0.309017 0
    outer loop
      vertex -11.7378 2.49494 0
      vertex -10.9625 4.88084 2
      vertex -10.9625 4.88084 0
    endloop
  endfacet
  facet normal -0.951057 0.309017 0
    outer loop
      vertex -10.9625 4.88084 2
      vertex -11.7378 2.49494 0
      vertex -11.7378 2.49494 2
    endloop
  endfacet
  facet normal -0.866025 0.5 0
    outer loop
      vertex -10.9625 4.88084 0
      vertex -9.7082 7.05342 2
      vertex -9.7082 7.05342 0
    endloop
  endfacet
  facet normal -0.866025 0.5 0
    outer loop
      vertex -9.7082 7.05342 2
      vertex -10.9625 4.88084 0
      vertex -10.9625 4.88084 2
    endloop
  endfacet
  facet normal -0.994522 0.104529 0
    outer loop
      vertex -12 6.79865e-15 0
      vertex -11.7378 2.49494 2
      vertex -11.7378 2.49494 0
    endloop
  endfacet
  facet normal -0.994522 0.104529 0
    outer loop
      vertex -11.7378 2.49494 2
      vertex -12 6.79865e-15 0
      vertex -12 6.79865e-15 2
    endloop
  endfacet
  facet normal -0.406737 0.913545 0
    outer loop
      vertex -3.7082 11.4127 0
      vertex -6 10.3923 2
      vertex -3.7082 11.4127 2
    endloop
  endfacet
  facet normal -0.406737 0.913545 0
    outer loop
      vertex -6 10.3923 2
      vertex -3.7082 11.4127 0
      vertex -6 10.3923 0
    endloop
  endfacet
  facet normal 0.994522 -0.104529 0
    outer loop
      vertex 11.7378 -2.49494 2
      vertex 12 0 0
      vertex 12 0 2
    endloop
  endfacet
  facet normal 0.994522 -0.104529 0
    outer loop
      vertex 12 0 0
      vertex 11.7378 -2.49494 2
      vertex 11.7378 -2.49494 0
    endloop
  endfacet
  facet normal 0 -1 0
    outer loop
      vertex -1.25434 -11.9343 0
      vertex 1.25434 -11.9343 2
      vertex -1.25434 -11.9343 2
    endloop
  endfacet
  facet normal 0 -1 -0
    outer loop
      vertex 1.25434 -11.9343 2
      vertex -1.25434 -11.9343 0
      vertex 1.25434 -11.9343 0
    endloop
  endfacet
  facet normal -0.994522 -0.104529 0
    outer loop
      vertex -11.7378 -2.49494 0
      vertex -12 6.79865e-15 2
      vertex -12 6.79865e-15 0
    endloop
  endfacet
  facet normal -0.994522 -0.104529 0
    outer loop
      vertex -12 6.79865e-15 2
      vertex -11.7378 -2.49494 0
      vertex -11.7378 -2.49494 2
    endloop
  endfacet
  facet normal 0.587785 -0.809017 0
    outer loop
      vertex 6 -10.3923 0
      vertex 8.02957 -8.91774 2
      vertex 6 -10.3923 2
    endloop
  endfacet
  facet normal 0.587785 -0.809017 0
    outer loop
      vertex 8.02957 -8.91774 2
      vertex 6 -10.3923 0
      vertex 8.02957 -8.91774 0
    endloop
  endfacet
  facet normal 0.951057 -0.309017 0
    outer loop
      vertex 10.9625 -4.88084 2
      vertex 11.7378 -2.49494 0
      vertex 11.7378 -2.49494 2
    endloop
  endfacet
  facet normal 0.951057 -0.309017 0
    outer loop
      vertex 11.7378 -2.49494 0
      vertex 10.9625 -4.88084 2
      vertex 10.9625 -4.88084 0
    endloop
  endfacet
  facet normal -0.743145 -0.669131 0
    outer loop
      vertex -8.02957 -8.91774 0
      vertex -9.7082 -7.05342 2
      vertex -9.7082 -7.05342 0
    endloop
  endfacet
  facet normal -0.743145 -0.669131 0
    outer loop
      vertex -9.7082 -7.05342 2
      vertex -8.02957 -8.91774 0
      vertex -8.02957 -8.91774 2
    endloop
  endfacet
  facet normal -0.951057 -0.309017 0
    outer loop
      vertex -10.9625 -4.88084 0
      vertex -11.7378 -2.49494 2
      vertex -11.7378 -2.49494 0
    endloop
  endfacet
  facet normal -0.951057 -0.309017 0
    outer loop
      vertex -11.7378 -2.49494 2
      vertex -10.9625 -4.88084 0
      vertex -10.9625 -4.88084 2
    endloop
  endfacet
  facet normal -0.866025 -0.5 0
    outer loop
      vertex -9.7082 -7.05342 0
      vertex -10.9625 -4.88084 2
      vertex -10.9625 -4.88084 0
    endloop
  endfacet
  facet normal -0.866025 -0.5 0
    outer loop
      vertex -10.9625 -4.88084 2
      vertex -9.7082 -7.05342 0
      vertex -9.7082 -7.05342 2
    endloop
  endfacet
  facet normal 0.207912 -0.978148 0
    outer loop
      vertex 1.25434 -11.9343 0
      vertex 3.7082 -11.4127 2
      vertex 1.25434 -11.9343 2
    endloop
  endfacet
  facet normal 0.207912 -0.978148 0
    outer loop
      vertex 3.7082 -11.4127 2
      vertex 1.25434 -11.9343 0
      vertex 3.7082 -11.4127 0
    endloop
  endfacet
  facet normal -0.207912 -0.978148 0
    outer loop
      vertex -3.7082 -11.4127 0
      vertex -1.25434 -11.9343 2
      vertex -3.7082 -11.4127 2
    endloop
  endfacet
  facet normal -0.207912 -0.978148 -0
    outer loop
      vertex -1.25434 -11.9343 2
      vertex -3.7082 -11.4127 0
      vertex -1.25434 -11.9343 0
    endloop
  endfacet
  facet normal -0.587785 -0.809017 0
    outer loop
      vertex -8.02957 -8.91774 0
      vertex -6 -10.3923 2
      vertex -8.02957 -8.91774 2
    endloop
  endfacet
  facet normal -0.587785 -0.809017 -0
    outer loop
      vertex -6 -10.3923 2
      vertex -8.02957 -8.91774 0
      vertex -6 -10.3923 0
    endloop
  endfacet
  facet normal 0.743145 -0.669131 0
    outer loop
      vertex 8.02957 -8.91774 2
      vertex 9.7082 -7.05342 0
      vertex 9.7082 -7.05342 2
    endloop
  endfacet
  facet normal 0.743145 -0.669131 0
    outer loop
      vertex 9.7082 -7.05342 0
      vertex 8.02957 -8.91774 2
      vertex 8.02957 -8.91774 0
    endloop
  endfacet
  facet normal -0.406737 -0.913545 0
    outer loop
      vertex -6 -10.3923 0
      vertex -3.7082 -11.4127 2
      vertex -6 -10.3923 2
    endloop
  endfacet
  facet normal -0.406737 -0.913545 -0
    outer loop
      vertex -3.7082 -11.4127 2
      vertex -6 -10.3923 0
      vertex -3.7082 -11.4127 0
    endloop
  endfacet
  facet normal -0.809017 -0.587785 0
    outer loop
      vertex 8.5 0 0
      vertex 7.46353 1.42658 2
      vertex 7.46353 1.42658 0
    endloop
  endfacet
  facet normal -0.809017 -0.587785 0
    outer loop
      vertex 7.46353 1.42658 2
      vertex 8.5 0 0
      vertex 8.5 0 2
    endloop
  endfacet
  facet normal 1 -0 0
    outer loop
      vertex 5.78647 -0.881678 2
      vertex 5.78647 0.881678 0
      vertex 5.78647 0.881678 2
    endloop
  endfacet
  facet normal 1 0 0
    outer loop
      vertex 5.78647 0.881678 0
      vertex 5.78647 -0.881678 2
      vertex 5.78647 -0.881678 0
    endloop
  endfacet
  facet normal 0.309017 -0.951057 0
    outer loop
      vertex 5.78647 0.881678 0
      vertex 7.46353 1.42658 2
      vertex 5.78647 0.881678 2
    endloop
  endfacet
  facet normal 0.309017 -0.951057 0
    outer loop
      vertex 7.46353 1.42658 2
      vertex 5.78647 0.881678 0
      vertex 7.46353 1.42658 0
    endloop
  endfacet
  facet normal 0.309017 0.951057 -0
    outer loop
      vertex 7.46353 -1.42658 0
      vertex 5.78647 -0.881678 2
      vertex 7.46353 -1.42658 2
    endloop
  endfacet
  facet normal 0.309017 0.951057 0
    outer loop
      vertex 5.78647 -0.881678 2
      vertex 7.46353 -1.42658 0
      vertex 5.78647 -0.881678 0
    endloop
  endfacet
  facet normal -0.809017 0.587785 0
    outer loop
      vertex 7.46353 -1.42658 0
      vertex 8.5 0 2
      vertex 8.5 0 0
    endloop
  endfacet
  facet normal -0.809017 0.587785 0
    outer loop
      vertex 8.5 0 2
      vertex 7.46353 -1.42658 0
      vertex 7.46353 -1.42658 2
    endloop
  endfacet
endsolid OpenSCAD_Model
